<?xml version="1.0" encoding="utf-8"?>
<!-- Generator: Adobe Illustrator 19.0.0, SVG Export Plug-In . SVG Version: 6.00 Build 0)  -->
<svg version="1.1" id="Layer_2" xmlns="http://www.w3.org/2000/svg" xmlns:xlink="http://www.w3.org/1999/xlink" x="0px" y="0px"
	 viewBox="119 22 479 111.9" style="enable-background:new 119 22 479 111.9;" xml:space="preserve">
<style type="text/css">
	.st0{fill:#FFFFFF;stroke:#1D1F55;stroke-width:2.83;stroke-miterlimit:10;}
	.st1{fill:#FFFFFF;stroke:#1D1F55;stroke-width:3.1;stroke-miterlimit:10;}
</style>
<title>btn</title>
<path class="st0" d="M128.2,24.5c40.2-1.7,80.7-0.1,121-0.1h130.1c42.4,0,84.7,0,127.1,0.1c16.7,0,33.5,0.3,50.2,0
	c7.4-0.1,14.7-0.8,22.1-1c4.8-0.2,11-0.1,14.6,3.6c1.2,1.2,2,2.7,2.4,4.3c1.8,7.1,0.5,14.5,0,21.8c-2.8,22.1-3.1,44.2-3.1,66.4
	c0,6.4-4.1,5.7-9.1,6.3c-3.4,0.4-6.9,0.6-10.4,0.7c-6.7,0.3-13.4,0.3-20,0.6c-11.2,0.5-22.4,0.9-33.5,1.3l-2.9,0.1h-1.3
	c-22.2,0.1-44.4,0.3-66.6,0.3c-36.9,0.2-73.8,0.2-110.7,0.1c-58.8-0.2-117.7,1.9-176.5,2.4c-8.2,0.1-16.1,0.4-24.2,1
	c-8.1,0.6-11.8-3.2-12.6-11c-2.7-29.5-6.3-60.9-3.5-90.4c0.1-1.4,0.4-2.8,1-4C123.6,24.7,125.9,24.6,128.2,24.5z"/>
<path class="st1" d="M138.2,32.9c-3.1,0.7-5.5,1.8-6.3,3.6c-1.4,2.9-1.2,6.3-1,9.5c1.5,21.5,0.6,43.1-0.1,64.7
	c-0.1,3.8,0.1,8.3,3.4,10.3c1.8,1.1,4,1.1,6.2,1.1c27.6,0,55.2,0.2,82.8,0.2c59.7,0.1,119.5,0,179.2-0.4
	c34.9-0.2,69.8-0.3,104.7-1.1c25.8-0.6,51.4-0.1,76.8-4.6c0.5,0,0.9-0.2,1.2-0.5c0.2-0.3,0.3-0.7,0.3-1.1c0.6-8.3,0.8-16.7,1.3-25
	c1-18.2,1-36.3,0.7-54.4c0-0.3-0.1-0.7-0.2-0.9c-0.3-0.3-0.8-0.4-1.2-0.3c-7.7,0-15.4,0-23,0L500,33.7l-178.9-0.5h-1.8
	C290,33.1,260,33.1,230.4,33c-15.1-0.1-30.2-0.1-45.3-0.3c-13.8-0.1-28.2-1.6-42-0.5C141.4,32.3,139.8,32.6,138.2,32.9z"/>
</svg>
