<?xml version="1.0" encoding="utf-8"?>
<!-- Generator: Adobe Illustrator 16.0.4, SVG Export Plug-In . SVG Version: 6.00 Build 0)  -->
<!DOCTYPE svg PUBLIC "-//W3C//DTD SVG 1.1//EN" "http://www.w3.org/Graphics/SVG/1.1/DTD/svg11.dtd">
<svg version="1.1" id="Layer_1" xmlns="http://www.w3.org/2000/svg" xmlns:xlink="http://www.w3.org/1999/xlink" x="0px" y="0px"
	 width="144px" height="101px" viewBox="0 0 144 101" enable-background="new 0 0 144 101" xml:space="preserve">
<title>food</title>
<desc>Created with Sketch.</desc>
<g id="Page-1_1_">
	<g id="food">
		<g id="Group" transform="translate(-16.000000, -8.000000)">
			<path id="Fill-12" fill="#FEFEFE" d="M30,93.333L32.667,29c0,0,27.833,1,90.166,1.166c0,0,5-1,5.334,13.5c0,0,17-3.333,17,4.667
				l-3.575,43.5L30,93.333z"/>
			<path id="Fill-14" fill="#20274E" d="M33.168,29.551L30.564,92.35l110.12-1.48l3.519-42.82c-0.003-1.12-0.427-2.044-1.3-2.762
				c-3.889-3.202-14.699-1.13-14.809-1.107l-0.873,0.171l-0.021-0.89c-0.195-8.506-2.027-11.308-3.102-12.223
				c-0.748-0.633-1.328-0.559-1.354-0.555l-0.13,0.011C66.473,30.543,38.006,29.706,33.168,29.551L33.168,29.551z M29,93.871
				L31.731,28l0.746,0.027c0.277,0.01,28.523,1.001,90.087,1.167c0.316-0.04,1.299-0.065,2.396,0.814
				c2.223,1.778,3.469,5.998,3.712,12.548c2.783-0.448,11.413-1.53,15.183,1.573c1.224,1.007,1.844,2.347,1.844,3.982l-3.635,44.241
				l-0.681,0.01L29,93.871z"/>
			<path id="Fill-16" fill="#20274E" d="M39.001,37.012l-2.946,55.821l98.009-1.237l2.951-48.207l-9.972-5.3L39.001,37.012z
				 M35,93.848L38.054,36l89.246,1.093l10.753,5.714l-3.048,49.777L35,93.848z"/>
			<path id="Fill-18" fill="#FEFEFE" d="M140.736,43.422c4.479,1.259,4.248,4.719,4.248,4.719c0-3.334-3.334-6.334-3.334-6.334
				l-12.834-10.333c-2.332-2.333-4.816-1.199-4.816-1.199s4.316,1.699,3.984,13.199C127.984,43.475,136.697,42.288,140.736,43.422"
				/>
			<path id="Fill-20" fill="#20274E" d="M140.762,42.456c0.28,0.079,0.547,0.167,0.797,0.263c-0.341-0.373-0.58-0.591-0.588-0.599
				l-12.804-10.307c-0.923-0.92-1.849-1.228-2.581-1.291c1.328,1.521,3.049,4.848,2.986,11.857
				C130.911,42.107,137.34,41.493,140.762,42.456 M145.553,47.945l-1.498-0.05c0-0.151-0.008-0.302-0.022-0.453
				c-0.113-0.829-0.702-2.707-3.677-3.544c-3.84-1.078-12.364,0.062-12.448,0.074l-0.878,0.119l0.025-0.884
				c0.311-10.675-3.484-12.469-3.522-12.485L122,30.048l1.509-0.701c0.121-0.054,2.988-1.322,5.659,1.351l12.775,10.279
				c0.162,0.146,3.07,2.797,3.547,6.037C145.555,47.364,145.57,47.682,145.553,47.945"/>
			
				<image overflow="visible" enable-background="new    " width="726" height="537" id="Page-1" xlink:href="CD337507A45825F9.png"  transform="matrix(0.24 0 0 0.24 -4.882812e-04 -4.882812e-04)">
			</image>
			<g enable-background="new    ">
				<path fill="#001259" d="M74.423,61.254c0,0.274-0.125,0.524-0.4,0.649c-0.125,0.051-0.25,0.101-0.375,0.125
					c-0.225,0.051-0.425,0.025-0.65,0.025c-0.05,0-0.1,0.025-0.15-0.025c-0.025-0.024-0.075,0-0.1,0.025
					c-0.075,0.025-0.15,0-0.225-0.05c-0.05,0.075-0.125,0.05-0.2,0.05c-0.85,0-1.7,0-2.549,0c-0.05,0-0.1,0-0.15,0
					c-0.25-0.025-0.5,0.05-0.775,0.05c0,0.05,0,0.125,0,0.175c0,0.4,0,0.8,0,1.2c0,0.05,0.025,0.149-0.05,0.2
					c0.075,0.074-0.025,0.124,0,0.225c0.025,0.05,0,0.125,0,0.2c0,0.074,0,0.175,0,0.25c0,0.149,0,0.199,0.025,0.3
					c0.025,0.024,0.025,0.05,0.025,0.074c0,0.15,0,0.301,0,0.45c-0.025,0.101-0.075,0.175-0.05,0.275
					c0.075,0.3,0.025,0.625,0.05,0.925c0.025,0.024,0.05,0.05,0.05,0.074c0.05-0.024,0.1-0.05,0.15-0.05
					c0.125,0.025,0.25,0.025,0.35,0.05c0.125,0,0.225,0.025,0.35,0.025c0.025,0,0.075-0.025,0.1-0.025c0.225,0,0.425,0,0.65,0
					c0.025,0,0.05,0.025,0.1,0.025c0,0.025,0.025,0,0.05,0c0,0,0.025,0,0.025,0.025c0.075,0.024,0.15-0.101,0.25-0.025
					c0.05,0.05,0.15,0,0.225-0.025c0.05,0,0.15,0.051,0.225,0.075c0.2-0.075,0.425-0.125,0.65-0.05c0.075,0.025,0.15,0,0.225,0.05
					c0.075,0.025,0.15-0.024,0.225-0.024c0.225-0.025,0.425-0.025,0.65,0c0.075,0,0.15,0,0.225,0.024
					c0.025,0.101,0.1,0.15,0.15,0.175c0.075,0.051,0.1,0.125,0.125,0.2c0.025,0.075,0.05,0.15,0.075,0.2
					c0.05,0.075,0,0.149,0.025,0.225c0.1,0.075,0.1,0.175,0.125,0.275c0.025,0.125,0.025,0.274,0.05,0.399c0,0.15,0,0.3,0,0.425
					c-0.025,0.25-0.075,0.476-0.175,0.7c0,0.025-0.025,0.05-0.025,0.075c-0.025,0.2-0.175,0.274-0.35,0.324
					c-0.125,0.051-0.25,0.101-0.375,0.075c-0.05,0-0.075,0.025-0.125,0.05c-0.025-0.024-0.025-0.024-0.05-0.05
					c-0.125,0.05-0.225,0.101-0.375,0.101c-0.525-0.025-1.05,0-1.6,0c-0.125,0-0.25,0-0.375-0.075c0,0,0-0.025,0-0.05
					c-0.05,0-0.1,0-0.15,0c-0.025,0.024-0.05,0.05-0.075,0.074c-0.175,0-0.325-0.024-0.5-0.024c-0.2-0.025-0.4-0.025-0.6-0.025
					c-0.075,0.075-0.125,0.15-0.225,0.2c-0.025,0-0.025,0.05-0.05,0.075c-0.075,0.125-0.075,0.3-0.175,0.425c0,0,0,0.05,0,0.075
					c0.025,0.024,0.05,0.024,0.025,0.074c-0.025,0,0,0.051,0,0.051c0,0.024,0.025,0.05,0.025,0.074c0,0.101,0,0.2,0,0.325
					c0,0.075,0.025,0.15,0.025,0.25l0.05-0.075l-0.05,0.3c0.025,0.075,0.075,0.176,0.05,0.275c0,0.05,0,0.1,0,0.149
					c0,0.025,0,0.075,0.025,0.101c0.025,0.05-0.05,0.075-0.025,0.125c0.05,0.05,0.025,0.125,0.05,0.175c0,0.075,0,0.15,0,0.225
					c0,0.075,0,0.15,0,0.226c0,0.074,0,0.149,0,0.25c0,0.074,0,0.149,0,0.225s0,0.15,0,0.225c0,0.075,0,0.15,0,0.226
					c0,0.074,0,0.149,0,0.225s0,0.15,0,0.225c0,0.075,0,0.15,0,0.25c0,0.075,0,0.15,0,0.226c0,0.074,0,0.149,0,0.225
					s-0.025,0.15,0,0.225c0.025,0.075-0.075,0.125-0.025,0.2c0,0.05,0.025,0.1-0.025,0.15c0,0.024,0,0.074,0.025,0.074
					c0.05,0.051-0.025,0.101,0,0.15c0.025,0.05,0.025,0.075-0.025,0.125c0,0.025,0,0.05,0,0.075c0.1,0.225,0.025,0.475,0.05,0.725
					c-0.025,0.025-0.05,0.05-0.1,0.075c0.025,0.024,0.05,0.024,0.05,0.05c-0.025,0.05-0.025,0.125-0.05,0.175
					c-0.1,0.05-0.175,0.125-0.275,0.175C68.399,76.95,68.299,76.95,68.199,77c0,0-0.05-0.025-0.1-0.025c-0.05,0-0.125,0-0.175,0.075
					c-0.45,0-0.9,0-1.325-0.024c-0.1,0-0.2-0.025-0.3-0.025c-0.1,0-0.225,0.025-0.3,0c-0.15-0.05-0.3-0.025-0.475-0.05
					c-0.025-0.075-0.05-0.15-0.075-0.226c0,0-0.025-0.024-0.05-0.024c0-0.05,0-0.101,0-0.125c-0.025-0.025-0.05-0.05-0.075-0.075
					v-0.024c-0.025-0.125-0.05-0.25-0.05-0.375c0-0.025,0.025-0.051,0.05-0.101c-0.15-0.125,0.05-0.274-0.025-0.425
					c0-0.024-0.025-0.05-0.075-0.075c0-0.149,0.025-0.3-0.075-0.449c0-0.125-0.025-0.275,0.025-0.4c0.025-0.05,0.025-0.125,0.05-0.2
					c0.025-0.024,0.025-0.1-0.025-0.125c-0.025-0.05-0.025-0.225,0-0.3c0-0.024-0.05-0.074-0.025-0.1c0.025-0.075-0.05-0.125,0-0.2
					c0.05-0.05,0.025-0.149,0.025-0.225s0-0.15,0-0.225c-0.025,0-0.05-0.025-0.075-0.025c0-0.05,0.075-0.1-0.025-0.125
					c0.025-0.025,0.05-0.05,0.05-0.05v-0.025c-0.025-0.075-0.15-0.149-0.05-0.25c-0.075-0.1-0.025-0.225-0.025-0.324
					c-0.025-0.101,0-0.2,0-0.301c0-0.024,0.025-0.05,0.025-0.1s-0.075-0.125-0.025-0.2c0.05-0.05-0.05-0.125,0.025-0.175
					c0.025-0.05-0.075-0.1,0-0.175c0.025-0.025,0.025-0.1-0.025-0.175l0.025-0.025c0-0.1,0.05-0.175-0.025-0.25
					c-0.025-0.024,0-0.1,0.025-0.149c-0.025-0.025-0.05-0.05-0.05-0.101c0-0.024,0.025-0.199,0-0.225
					c-0.05-0.075-0.025-0.175,0.025-0.25c-0.025-0.05-0.05-0.075-0.05-0.1c0-0.175,0-0.325,0-0.476c0-0.074,0.05-0.149,0.075-0.199
					c0-0.051,0.025-0.075,0-0.101c-0.025-0.125-0.05-0.225-0.075-0.35c0.025,0,0.025-0.025,0.05-0.025
					c-0.075-0.05-0.05-0.125-0.025-0.175c0-0.2,0-0.399,0.025-0.574c-0.075-0.125-0.025-0.275-0.05-0.4c0-0.1,0-0.175,0.05-0.25
					c0.025-0.075-0.025-0.175,0.025-0.25c0.025-0.05,0-0.1,0-0.149c-0.025-0.051-0.05-0.075-0.075-0.101
					c0.025,0,0.025-0.024,0.05-0.024c-0.025-0.025-0.025-0.025-0.05-0.051c0.025-0.05,0.05-0.125,0.075-0.199
					c0-0.025-0.025-0.025-0.025-0.05c0.025-0.051,0.05-0.101,0.05-0.15c0-0.125-0.125-0.2-0.025-0.325c0.05-0.075-0.025-0.1,0-0.175
					c0.05-0.149,0.075-0.3,0.05-0.475c0-0.075-0.05-0.175-0.025-0.25c0-0.075-0.025-0.125-0.05-0.2c0-0.125-0.025-0.125,0.025-0.25
					c-0.05-0.05-0.025-0.125-0.025-0.175c0-0.274,0-0.524,0-0.774c0-0.025,0-0.025,0.025-0.051c0-0.024-0.025-0.024-0.025-0.05
					c-0.025-0.05,0.025-0.125,0-0.2c-0.025-0.05-0.025-0.149,0-0.199c0.05-0.075,0.025-0.15,0.05-0.25
					c0-0.025,0.05-0.05,0.075-0.075c-0.025-0.1,0-0.2-0.025-0.274c-0.025-0.075-0.025-0.15-0.05-0.226
					c-0.025-0.05-0.025-0.149,0-0.2c0.05-0.149,0.025-0.3,0.025-0.425c0-0.024,0.025-0.05,0.025-0.074
					c-0.05-0.051-0.05-0.15-0.025-0.2c0.1-0.125,0-0.2-0.025-0.3c0-0.025,0.025-0.051,0.025-0.075c0-0.125,0.025-0.25-0.025-0.4
					c-0.025-0.024,0.025-0.1,0.025-0.125c0-0.274,0.075-0.55,0.05-0.824c0-0.075,0-0.125,0-0.2c0-0.05,0-0.1,0-0.149
					c-0.025-0.051,0-0.101-0.05-0.15c-0.025-0.075,0.025-0.15,0.05-0.225c0.025,0.024,0.025,0.024,0.075,0.05
					c0-0.125,0.025-0.25,0.15-0.325c0,0,0.025,0.025,0.05,0.05c0.05-0.05,0.075-0.149,0.175-0.125c0,0,0,0.025,0.025,0.025
					c0-0.025,0-0.05,0.025-0.075c0.025,0,0.05,0,0.1,0.025c0-0.025,0-0.025,0.025-0.051c0.05-0.024,0.1-0.024,0.175-0.05
					c0,0,0.025,0,0.025,0.025c0.05-0.025,0.125-0.075,0.175-0.1c0.025,0,0.05,0,0.075,0.024c0.025-0.024,0.025-0.05,0.025-0.075
					c0.1,0,0.2-0.024,0.3,0.051c0.025-0.051,0.025-0.075,0.05-0.101c0.05,0.025,0.125,0.025,0.2,0.05
					c0.025-0.05,0.025-0.074,0.025-0.074c0.225-0.025,0.45-0.051,0.675-0.051c0.025,0.025,0.05,0.051,0.075,0.075
					c0.05-0.075,0.1-0.05,0.15-0.05c0.05,0,0.1,0.025,0.15-0.025c0.05,0.075,0.1-0.024,0.15,0c0.05,0.025,0.1,0.025,0.15,0.025
					c0.05,0,0.1,0,0.15,0.05c0.05-0.075,0.125-0.05,0.175,0c0.175-0.075,0.35-0.05,0.55,0c0.05-0.075,0.15-0.05,0.225-0.05
					c0.1,0,0.2,0,0.275,0c0.1,0,0.2-0.025,0.275,0c0.075,0.05,0.15,0.025,0.225,0.075c0.075,0.05,0.175-0.025,0.25,0.05
					c0.05,0,0.1-0.05,0.125-0.025c0.1,0.051,0.225-0.074,0.325,0.025c0,0,0.025-0.025,0.05-0.025c0.1-0.024,0.2-0.024,0.3,0
					c0.1,0,0.2,0,0.275,0.025c0.075,0.05,0.15,0.025,0.2,0.05c0.075,0.075,0.1-0.05,0.15,0c0.075,0.025,0.15-0.05,0.2,0.025
					c0.025,0,0.05-0.025,0.05-0.025c0.075,0,0.125,0,0.2,0c0.05,0,0.1,0,0.15,0.025c0.05,0,0.1-0.075,0.15,0
					c0,0.024,0.05,0.024,0.075,0c0.125-0.05,0.275-0.025,0.4-0.025c0.025,0,0.05-0.024,0.05-0.05c0.05,0.025,0.1,0.05,0.15,0.075
					c0.075-0.025,0.125-0.05,0.175-0.025c0.075,0.025,0.15,0,0.2,0c0.225-0.024,0.3-0.024,0.475,0.075
					c0.05,0.024,0.075,0.05,0.1,0.075c0.05,0.05,0.05,0.125,0.15,0.125c0,0.074,0.05,0.1,0.05,0.175c0,0.05,0.025,0.075,0.05,0.125
					c-0.025,0.024-0.05,0.05-0.05,0.075c0.025,0.024,0.05,0.074,0.075,0.1C74.423,60.179,74.448,60.729,74.423,61.254z
					 M65.825,63.928c0,0.025,0,0.025,0.025,0.051l0.075,0.1c0.05-0.1,0.075-0.175,0.025-0.275l-0.1,0.075
					C65.85,63.903,65.825,63.928,65.825,63.928z M65.825,64.953c0.175-0.075,0.375-0.025,0.475,0.1c0.05,0.05,0.1,0.075,0.15,0.101
					c0.05,0.05,0.125,0.074,0.175,0.149c0.025,0.025,0.075,0.075,0.1,0.075l0.175-0.05l0.075,0.225c0.1,0.025,0.225,0.05,0.3,0.05
					v-0.024l-0.25-0.101v-0.1C67,65.253,67.049,65.153,67.1,65.053c0,0,0,0-0.025,0c-0.075,0.05-0.15,0.05-0.175,0.05
					c-0.05,0-0.075,0-0.1,0c-0.2-0.1-0.275-0.35-0.2-0.574c0,0,0-0.025-0.025-0.05c0,0,0-0.025-0.025-0.025
					c-0.025,0.05-0.025,0.075-0.05,0.125l-0.025,0.05c-0.025,0.025-0.025,0.025-0.025,0.05l-0.075,0.226l-0.25-0.125
					c-0.075-0.025-0.125-0.051-0.2-0.101c-0.025-0.024-0.075-0.05-0.1-0.1C65.825,64.703,65.825,64.828,65.825,64.953z
					 M65.85,72.526c0.05,0.05,0.1,0.05,0.15,0.024c0-0.024,0.025-0.024,0.05-0.024l-0.025-0.125v-0.025c-0.025,0-0.05,0-0.075,0
					l-0.025,0.125L65.85,72.526z M65.95,62.778c0.025-0.024,0.025-0.1,0-0.125l-0.05,0.05L65.95,62.778z M66.025,62.953v-0.375
					l-0.1,0.525c0.025,0.075,0.025,0.149,0.025,0.2c0.05,0,0.075,0.024,0.125,0.024l0.175,0.075v-0.025c0-0.024,0-0.074,0-0.074
					l-0.15-0.101l0.1-0.149l-0.05-0.05v-0.051H66.025z M67.974,72.251h0.025c-0.025-0.1-0.075-0.175-0.075-0.274
					c0-0.025-0.025-0.025-0.075-0.075c0,0.024,0,0.024,0,0.024c0,0.025,0,0.075-0.025,0.101v0.149l-0.1,0.051
					c-0.025,0-0.05,0-0.05,0c-0.025,0.024-0.025,0.024-0.05,0.024c0,0,0,0-0.025,0.025c0,0-0.025,0.024-0.05,0.05
					c-0.05,0.025-0.1,0.075-0.2,0.075c-0.075,0-0.125-0.05-0.2-0.075c0,0.05,0,0.075-0.025,0.1c-0.025,0.075-0.025,0.125-0.05,0.176
					c-0.025,0.1-0.05,0.149-0.1,0.199l0.225-0.024l0.075,0.25c0.1,0.05,0.125,0.125,0.15,0.274v0.125l-0.325,0.2l-0.075-0.025
					c-0.175-0.075-0.25-0.149-0.175-0.375c0-0.024,0-0.05,0.025-0.074l0.025-0.125l-0.025-0.125c-0.025,0.024-0.025,0.024-0.05,0.05
					c-0.025,0.024-0.075,0.05-0.1,0.075c-0.05,0.05-0.1,0.074-0.125,0.1c-0.025,0-0.05,0.025-0.05,0.025l-0.075,0.05l-0.075-0.025
					c-0.125-0.05-0.2-0.1-0.2-0.2l-0.175,0.101c0.025,0.024,0.025,0.024,0.025,0.024c0.05,0,0.125,0.051,0.15,0.15
					c0,0.025,0,0.075,0,0.1c0.025,0.025,0.05,0.05,0.075,0.05c0.1,0.101,0.15,0.2,0.15,0.301l0.4,0.125v0.149
					c-0.025,0.15-0.125,0.2-0.2,0.226c0,0.024,0.025,0.024,0.025,0.05l0.05,0.074l-0.05,0.101c-0.025,0-0.025,0.024-0.05,0.05
					s-0.025,0.05-0.05,0.05c0.025,0,0.025,0.025,0.025,0.05c0.025,0.025,0.025,0.051,0.025,0.101l0.05,0.175l-0.225,0.025
					c-0.025,0-0.025,0.024-0.025,0.024c-0.025,0-0.05,0-0.075,0.025C66.25,74.95,66.175,74.95,66.15,75
					c-0.05,0.025-0.1,0.051-0.125,0.101c-0.025,0.024-0.05,0.024-0.1,0.05c0.05,0.125,0.05,0.25,0.075,0.325
					c-0.025-0.125,0.025-0.275,0.25-0.325c0.025,0,0.05,0,0.075,0l0.175-0.025l0.025,0.075c0.05-0.05,0.125-0.1,0.175-0.175
					c0.1-0.075,0.1-0.075,0.05-0.175c-0.025-0.1-0.075-0.225,0.025-0.375l0.05-0.075c0-0.1,0.025-0.175,0.05-0.25l0.025-0.05
					l0.025-0.024c0.05,0,0.075-0.025,0.1-0.051c0.025,0,0.025,0,0.05-0.024c0.1-0.15,0.25-0.3,0.375-0.425l0.05-0.051
					c0.075-0.074,0.175-0.1,0.225-0.1c0-0.025,0-0.05,0.025-0.1c0-0.025,0-0.075,0.025-0.15c-0.025,0-0.025,0-0.05,0l-0.025-0.024
					c-0.15-0.051-0.225-0.176-0.2-0.301c0-0.074,0.05-0.149,0.075-0.199H67.6c0.025-0.05,0.075-0.075,0.125-0.075
					c0-0.125,0.05-0.225,0.125-0.3l0.05-0.025H67.974z M65.975,61.979l0.15,0.125l-0.1,0.2l0.05-0.05l-0.025,0.274h0.075l-0.025-0.2
					l0.325,0.075c0.025-0.05,0.025-0.075,0.025-0.1c-0.025-0.025-0.05-0.05-0.075-0.101c-0.05-0.074-0.05-0.124-0.025-0.175
					c-0.025-0.024-0.025-0.074-0.025-0.149c0-0.025-0.025-0.05-0.025-0.075c-0.1,0.05-0.2,0.075-0.275,0.075
					C66.025,61.903,66,61.954,65.975,61.979z M66.3,74.126c0.025,0,0.025-0.025,0.05-0.025c-0.025-0.024-0.025-0.05-0.05-0.075
					c0,0.025-0.025,0.051-0.05,0.075L66.3,74.126z M66.475,63.679c0.025,0,0.025,0.024,0.05,0.024l0.075,0.1v0.051
					c0.025,0.05,0,0.074,0,0.1c0.025,0.025,0.025,0.025,0.05,0.05c0.15-0.05,0.3-0.075,0.475-0.075c0-0.074,0.025-0.149,0.05-0.199
					C67.1,63.703,67.049,63.628,67,63.604c0-0.05-0.025-0.075-0.05-0.101c0,0.051-0.025,0.075-0.05,0.101
					C66.825,63.703,66.675,63.729,66.475,63.679z M66.774,63.078c0.025,0,0.025,0,0.025,0.025c0.025,0,0.025,0,0.05,0.024
					c0,0,0.025,0,0.025,0.025l0.1,0.05v0.101c0-0.025,0-0.051,0.025-0.075c0.025-0.025,0.025-0.05,0.05-0.05
					c-0.025-0.075,0-0.15,0.05-0.226l0.025-0.05c0.025-0.024,0.05-0.075,0.05-0.075c0.025-0.175,0.1-0.274,0.25-0.324l-0.025-0.101
					c-0.025-0.024-0.05-0.05-0.05-0.1c-0.025-0.025-0.025-0.05-0.025-0.075l-0.15,0.225l-0.15-0.25
					c-0.05-0.074-0.075-0.149-0.05-0.199l-0.05-0.025c-0.025-0.024-0.05-0.024-0.075-0.024c0,0.024,0,0.024-0.025,0.05l0.05,0.075
					c0.075,0.124,0.1,0.249,0.1,0.399h0.25l-0.15,0.25c-0.025,0-0.025,0.025-0.025,0.025c-0.025,0.024-0.05,0.074-0.125,0.125
					C66.8,62.929,66.774,62.979,66.774,63.078z M67.274,69.802c-0.025-0.025-0.05-0.05-0.05-0.075
					c-0.075,0.075-0.125,0.101-0.2,0.101c-0.025,0.074-0.05,0.1-0.025,0.149v0.025c0,0.05,0.025,0.1,0.025,0.149
					c0.025-0.024,0.025-0.024,0.05-0.024h0.125l0.05,0.1c0.025-0.025,0.05-0.05,0.075-0.075c0,0,0-0.024,0.025-0.05
					C67.35,69.952,67.35,69.877,67.274,69.802z M68.549,61.629c-0.025-0.05-0.075-0.101-0.1-0.15c0,0,0,0-0.025,0l-0.05-0.05
					c-0.05-0.05-0.125-0.1-0.175-0.149c-0.025,0-0.05-0.025-0.05-0.025c-0.025-0.025-0.05-0.05-0.05-0.05
					c-0.275-0.075-0.325-0.175-0.35-0.4v-0.05c0-0.025-0.025-0.05-0.025-0.075c-0.025,0.05-0.05,0.101-0.075,0.175l0.025,0.025
					c0,0.1,0.025,0.2,0.05,0.3c0.05,0.15,0,0.3-0.125,0.375c-0.075,0.025-0.125,0.05-0.175,0.075l-0.025,0.25
					c0.025,0.05,0.025,0.125,0,0.175c0.025-0.025,0.075-0.05,0.1-0.05c0.025-0.025,0.075-0.025,0.125-0.05
					c0.05-0.025,0.125-0.051,0.2-0.075c0.05-0.025,0.125-0.05,0.175-0.075l0.125-0.075l0.075,0.025c0.05,0,0.075,0.024,0.1,0.024
					v-0.149H68.549z M68.549,67.327c-0.125-0.05-0.2-0.175-0.2-0.325c0-0.024,0-0.05,0-0.1l-0.025-0.05l-0.025-0.2
					c0-0.1,0-0.2,0-0.3c-0.025-0.025-0.025-0.025-0.025-0.05c-0.025-0.025-0.05-0.05-0.075-0.05
					c-0.025-0.025-0.05-0.025-0.075-0.025c-0.075,0-0.2-0.024-0.3-0.1c-0.025,0.05-0.075,0.1-0.15,0.149
					c-0.025,0.025-0.05,0.05-0.05,0.075c-0.025,0-0.025,0.025-0.025,0.025s0,0.024,0.05,0.05c0.125,0.075,0.225,0.175,0.225,0.325
					l0.025,0.1l-0.1,0.1c-0.025,0-0.025,0.025-0.05,0.025c0.025,0.024,0.05,0.05,0.075,0.075c0.025-0.025,0.075-0.025,0.125-0.025
					h0.025c0.075,0,0.125,0.025,0.175,0.05c0.025,0,0.025,0,0.05,0l0.075,0.025l0.025,0.075c0,0.024,0.025,0.05,0.025,0.05
					c0,0.024,0,0.05,0,0.05c0.025,0,0.025,0,0.05,0h0.025C68.449,67.303,68.499,67.303,68.549,67.327z M67.75,76.226h-0.025v0.149
					L67.75,76.226z M68.174,62.729c0,0.05,0,0.125,0,0.2l-0.025,0.25h-0.15c0,0-0.025,0-0.05,0h-0.025l-0.025,0.024
					c0,0-0.025,0-0.05,0c0,0.025,0,0.05,0,0.075c0.1,0.075,0.125,0.125,0.15,0.275c0,0.024,0.025,0.024,0.025,0.05h0.025
					c0,0.05,0.025,0.075,0.025,0.1l0.225-0.149c0-0.125,0-0.25,0-0.375l-0.025-0.075l-0.05-0.15l0.075-0.024v-0.25
					c-0.025,0-0.05-0.025-0.05-0.025s0,0-0.025,0s-0.025,0-0.05,0C68.174,62.679,68.174,62.703,68.174,62.729z M68.299,74.976
					c-0.025,0-0.025,0.024-0.05,0.024l-0.125,0.125v-0.05c-0.05,0-0.1,0.025-0.15,0c0,0.05-0.025,0.101-0.05,0.15
					c0,0.024,0,0.024,0.025,0.024c0,0.051,0.025,0.075,0.025,0.101c0.05-0.15,0.175-0.275,0.3-0.3
					C68.274,75.025,68.299,75,68.299,74.976z M68.299,74.051c-0.025,0-0.05,0-0.05,0c-0.075,0.025-0.125,0.025-0.175,0
					c0.075,0.1,0.1,0.2,0.125,0.3l0.1-0.075V74.051z M68.624,67.353h-0.025c0.025,0.024,0.05,0.024,0.075,0.05c0,0,0,0,0.025,0
					C68.674,67.377,68.649,67.377,68.624,67.353z M68.899,61.579c0-0.025,0-0.025,0-0.051c0-0.024-0.025-0.05-0.025-0.05
					s0,0-0.025,0c0,0,0,0-0.025,0h0.05v0.075L68.899,61.579h-0.025v0.024C68.899,61.579,68.899,61.579,68.899,61.579z
					 M68.949,67.577l0.125,0.05l-0.075,0.075c0.025,0,0.05-0.024,0.075-0.075c0,0,0,0-0.025,0
					C69.024,67.577,68.974,67.553,68.949,67.577z M69.899,61.604c-0.125-0.075-0.125-0.175-0.1-0.3c-0.05,0.05-0.1,0.101-0.15,0.125
					l-0.1,0.075l-0.075-0.05l0.125,0.149c0,0,0,0,0.025,0c0.05,0,0.1,0,0.175,0c0,0,0.05,0,0.075,0H69.899z M73.873,61.204
					l-0.1,0.075l-0.075-0.101c-0.05,0.05-0.125,0.075-0.175,0.101c-0.075,0.05-0.175,0.05-0.25,0c-0.075-0.051-0.15-0.176-0.1-0.275
					c0.025-0.05,0.025-0.1,0.025-0.175s0-0.15,0-0.25v-0.025c0-0.05,0.025-0.1,0.05-0.125l-0.05-0.05l-0.125,0.025l-0.05-0.101
					l-0.375-0.074v-0.125c0-0.025,0-0.051,0-0.075c-0.025,0-0.05,0-0.075,0l-0.05-0.025l-0.05-0.075c0-0.024-0.025-0.074,0-0.149
					c-0.05,0-0.1,0-0.1,0h-0.025l-0.35,0.3l-0.225-0.3c-0.1,0-0.2,0-0.275-0.05c-0.075,0-0.125-0.025-0.2-0.05h-0.1c0,0,0,0-0.025,0
					l-0.35,0.3l-0.225-0.275l-0.3,0.101l-0.025,0.05l-0.275-0.15l-0.125,0.05c-0.025,0-0.05,0.025-0.1,0.025h-0.025v0.075
					c0,0.024,0,0.05,0,0.074c0,0.051,0,0.101-0.025,0.176c0.025,0,0.075,0.024,0.1,0.05c0.1,0.075,0.15,0.149,0.15,0.225
					c0.025,0.025,0.025,0.075,0,0.125l0.275,0.075l-0.025,0.1h0.05c0.05,0,0.1,0.025,0.15,0.025c0.025,0.024,0.075,0.024,0.1,0.024
					l0.55-0.85l0.125,0.325c0.025,0.075,0.05,0.25-0.15,0.325h-0.025l-0.25,0.125h0.1v0.024l0.1-0.075l0.025,0.226l0.05,0.075
					l-0.05,0.024c0,0.075,0,0.101,0.125,0.125c0.275,0.101,0.3,0.3,0.275,0.475c0,0.025-0.025,0.051-0.025,0.075h0.2v-0.024l0.1-0.2
					l0.25,0.2l0.225-0.125l0.075,0.149h0.075l0.175-0.225c0.025-0.075,0.1-0.15,0.3-0.175h0.025c0.15,0,0.25,0.075,0.3,0.2
					c0.025,0.05,0.05,0.124,0.075,0.199c0,0,0.025,0,0.05,0h0.175c0.075,0,0.15,0,0.2-0.024c0.1,0,0.175-0.025,0.25-0.051
					c0-0.024,0-0.024,0-0.024s0.025-0.025,0.025-0.075C73.873,61.354,73.873,61.279,73.873,61.204z M69.774,59.729
					c0.05,0,0.1-0.025,0.125-0.05l-0.05-0.051l-0.075,0.051V59.729z M69.774,59.729v-0.05l0.075-0.051l0.05,0.051
					C69.874,59.704,69.824,59.729,69.774,59.729z M69.924,60.979l0.075,0.075l-0.075-0.024
					C69.924,61.004,69.924,60.979,69.924,60.979z M69.924,60.979c0,0,0,0.025,0,0.051l0.075,0.024L69.924,60.979z M72.173,60.279
					l0.1,0.524l-0.15,0.025c-0.025,0.024-0.05,0.024-0.075,0.024c-0.025,0.025-0.075,0.051-0.15,0.051c-0.05,0-0.1,0-0.15-0.025
					c-0.125-0.075-0.2-0.15-0.3-0.2c-0.025-0.05-0.075-0.075-0.1-0.125c0,0-0.025-0.024-0.025-0.05l-0.075-0.075l0.25-0.5l0.175,0.2
					c0.05,0.05,0.125,0.075,0.25,0.101c0.05,0,0.1,0,0.15,0.024L72.173,60.279z M73.873,60.729c0-0.149,0-0.274,0-0.399v-0.225
					l-0.225-0.275c-0.025,0-0.075-0.024-0.125-0.05c0,0.05,0,0.075-0.025,0.125c0,0.024,0,0.024,0,0.05
					c0.05,0.075,0.05,0.175,0.025,0.225c0,0.025,0,0.051,0,0.075v0.05c0.075,0.025,0.15,0.101,0.175,0.226
					c0.025,0.074,0.025,0.125,0.05,0.175v0.024c0,0,0,0,0,0.025h0.075L73.873,60.729z M73.873,60.329c0,0.125,0,0.25,0,0.399
					l-0.05,0.025h-0.075c0-0.025,0-0.025,0-0.025v-0.024c-0.025-0.05-0.025-0.101-0.05-0.175c-0.025-0.125-0.1-0.2-0.175-0.226
					v-0.05c0-0.024,0-0.05,0-0.075c0.025-0.05,0.025-0.149-0.025-0.225c0-0.025,0-0.025,0-0.05c0.025-0.05,0.025-0.075,0.025-0.125
					c0.05,0.025,0.1,0.05,0.125,0.05l0.225,0.275V60.329z"/>
				<path fill="#001259" d="M85.197,65.902c-0.025,0.051,0.075,0.101,0,0.15c0.05,0.075-0.025,0.15,0,0.25
					c0.025,0.05,0.05,0.125,0.025,0.175c0,0.05-0.025,0.125-0.025,0.175s0,0.101,0,0.15c-0.025,0.425-0.025,0.85-0.05,1.3
					c0,0.074-0.025,0.175-0.05,0.25c-0.025,0.149-0.05,0.324,0.025,0.475c0,0,0,0.024,0,0.05c-0.1,0.2-0.025,0.425-0.05,0.649
					c0,0.051-0.025,0.075-0.025,0.125c0.05,0.075,0.025,0.15,0,0.25c0,0.025-0.025,0.051-0.025,0.075
					c0.025,0.05,0.025,0.101,0.025,0.125c0,0.075,0,0.125-0.025,0.175c0,0.075,0.025,0.101,0.05,0.15s0,0.1,0,0.125
					c0,0.625,0,1.249,0,1.85c0,0.125-0.025,0.225-0.05,0.324c0,0.101,0.05,0.226-0.025,0.301c0,0.25-0.075,0.475-0.125,0.699
					c-0.025,0.101-0.075,0.226-0.125,0.325c-0.125,0.3-0.275,0.575-0.45,0.825c-0.05,0.074-0.1,0.149-0.175,0.225
					c-0.05,0.1-0.15,0.175-0.2,0.274c-0.075,0.075-0.175,0.101-0.225,0.2c-0.05,0.101-0.15,0.15-0.25,0.2
					c-0.075,0.075-0.15,0.149-0.225,0.2c-0.075,0.05-0.175,0.125-0.25,0.175c-0.25,0.1-0.45,0.274-0.725,0.35
					c-0.175,0.05-0.325,0.15-0.525,0.2c-0.15,0.05-0.3,0.125-0.475,0.125c-0.1,0-0.2,0.024-0.225,0
					c-0.025,0.024-0.025,0.05-0.05,0.075c-0.05,0-0.1,0-0.175,0c-0.05,0-0.1,0.024-0.15,0.05c-0.075,0.024-0.1-0.075-0.175-0.025
					c0,0-0.025-0.024-0.075-0.05c0,0.05-0.025,0.1-0.025,0.1c-0.325,0-0.6,0.025-0.875,0c-0.1,0-0.175-0.024-0.25-0.024
					c-0.1-0.025-0.175,0.024-0.25-0.05c-0.125,0.024-0.225-0.025-0.35-0.051c-0.125,0-0.275-0.05-0.4-0.1
					c-0.25-0.075-0.475-0.125-0.7-0.225c-0.175-0.05-0.325-0.125-0.425-0.275c-0.025,0-0.05,0.025-0.075,0.05
					c-0.1-0.074-0.225-0.149-0.35-0.225c-0.1-0.075-0.225-0.175-0.325-0.25c-0.125-0.075-0.25-0.175-0.35-0.274
					c0-0.051,0-0.075,0-0.125c-0.025,0-0.05,0-0.075,0c-0.025-0.101-0.05-0.176-0.15-0.226c-0.075-0.024-0.125-0.1-0.15-0.175
					c-0.125-0.175-0.175-0.375-0.35-0.524c-0.025-0.025-0.05-0.051-0.05-0.101c0,0,0,0,0.025-0.024
					c-0.075-0.101-0.025-0.226-0.05-0.351c-0.025,0-0.05,0-0.075,0c-0.05-0.074-0.125-0.1-0.125-0.199
					c-0.025-0.075-0.075-0.15-0.075-0.25c0-0.025-0.05-0.051-0.05-0.075c0-0.175,0-0.35-0.025-0.525
					c-0.025-0.024-0.05-0.024-0.075-0.024c-0.025-0.075,0-0.175-0.075-0.25c0-0.175-0.125-0.325-0.025-0.5
					c0-0.025-0.025-0.05-0.05-0.075c0.025-0.024,0.05-0.05,0.05-0.1c0,0-0.025-0.025-0.025-0.05l0.025-0.025
					c-0.025-0.025-0.05-0.05-0.075-0.1c0-0.051-0.025-0.125,0.025-0.2c0.025-0.025,0-0.075-0.025-0.175c0,0.024,0.025,0,0.025-0.025
					c0-0.075-0.025-0.149-0.025-0.225s-0.075-0.15-0.05-0.225c0.025-0.075,0-0.15,0-0.226c0-0.1,0-0.175,0-0.25
					s-0.025-0.175,0.025-0.225c-0.075-0.475-0.1-0.925-0.025-1.425c0,0-0.025,0-0.025-0.025c0.025-0.074,0.025-0.074,0.025-0.199
					c0.025-0.025,0.05-0.051,0.075-0.075c0-0.075,0-0.175-0.025-0.25c-0.075-0.125-0.05-0.225-0.05-0.35c0-0.075,0.05-0.15,0.05-0.2
					c0.025-0.025,0.05-0.05,0.025-0.05c-0.05-0.175,0.05-0.351,0-0.525c0,0-0.025-0.024-0.025-0.05c0.025,0,0.05,0,0.075-0.025
					c-0.1-0.125,0.025-0.249,0-0.374c0-0.125-0.025-0.275,0.05-0.4c-0.05-0.025-0.05-0.075-0.05-0.125c0-0.425,0-0.825,0-1.25
					c0-0.1,0.025-0.199,0.075-0.3c0-0.05,0.025-0.074,0-0.1c-0.05-0.15-0.05-0.3-0.075-0.45c0-0.149,0-0.3,0-0.449
					c0.025-0.15,0.025-0.275,0.05-0.426c0-0.024,0.025-0.024,0.025-0.024c-0.025-0.075-0.05-0.15-0.05-0.225
					c0.025-0.325,0.05-0.676,0.15-1c0.025,0,0.05,0,0.05,0c0.05-0.125,0.1-0.25,0.125-0.351c0-0.024,0-0.024,0-0.024
					c0.025-0.05,0.05-0.101,0.075-0.15c0,0-0.025-0.024,0-0.024c0.05-0.075,0.125-0.125,0.15-0.2c0.025-0.075,0.025-0.175,0.05-0.25
					c0.05-0.125,0.075-0.225,0.175-0.3c0.025-0.025,0.025-0.075,0.05-0.101c0.025,0,0.05,0,0.1,0c0-0.024,0.025-0.074,0.05-0.1
					c0.05-0.125,0.2-0.325,0.325-0.425c0.05-0.025,0.075-0.075,0.125-0.1c0.025-0.025,0.075-0.051,0.1-0.101
					c0.025-0.074,0.075-0.1,0.175-0.1c0-0.025,0.025-0.05,0.025-0.075c0,0,0.025,0.025,0.05,0.025c0.15-0.226,0.4-0.351,0.65-0.476
					c0,0,0.025,0,0.025,0.025c0.075,0,0.1-0.075,0.15-0.1c0.05-0.051,0.15-0.075,0.225-0.101c0.05-0.024,0.125-0.075,0.175,0
					c0.075-0.125,0.15-0.149,0.25-0.125c0.05-0.1,0.175-0.1,0.25-0.125c0.225-0.05,0.475-0.074,0.7-0.125
					c0.025,0,0.025-0.024,0.05-0.024c0.1,0.05,0.1,0.05,0.3-0.05c0.025,0,0.05,0.05,0.075,0.05c0.175-0.025,0.375,0.05,0.55-0.05
					c0.05,0.074,0.1-0.025,0.125,0c0.05,0,0.1,0.024,0.15,0.024c0.05,0,0.075,0,0.125,0.025c0.05,0,0.1-0.025,0.15,0
					c0.025,0,0.075,0.024,0.125,0.024c0,0.025,0.025,0.025,0.025,0.051c0.025-0.025,0.05-0.051,0.05-0.051c0.075,0,0.125,0,0.2,0
					c0.2,0.101,0.425,0.025,0.625,0.176c0.125-0.025,0.225,0.024,0.325,0.074c0.1-0.074,0.15,0.101,0.25,0.05
					c0.025,0.025,0.025,0.051,0.025,0.075c0.05,0,0.075,0,0.1,0c0.05,0.05,0.075,0.075,0.125,0.125c0.05-0.024,0.175,0,0.25,0.05
					c0.2,0.075,0.4,0.176,0.575,0.325c0.05,0.025,0.1,0.05,0.125,0.075c0.075,0.175,0.25,0.25,0.375,0.35
					c0.075,0.05,0.175,0.075,0.2,0.2c0,0.025,0.05,0.025,0.1,0.05c0,0.025,0,0.075,0,0.075c0.025,0.125,0.15,0.125,0.2,0.225
					c0.05,0,0.025,0.05,0.05,0.075c0.125,0.15,0.175,0.325,0.275,0.475c0.05,0.075,0.05,0.15,0.05,0.226
					c0.025,0,0.025,0.024,0.05,0.024c0.05,0.075,0.075,0.15,0.125,0.2c0.025,0.1,0.05,0.175,0.075,0.275
					c0.025,0.074,0.05,0.149,0.025,0.25c0.15,0.05,0.1,0.225,0.175,0.324c-0.025,0.101,0.1,0.226,0,0.351
					c0.075,0.1,0.1,0.25,0.125,0.374c0.05,0.25,0.1,0.5,0.075,0.775c0,0.024,0.075,0.05,0.025,0.1c-0.025,0,0.025,0.05,0.025,0.101
					c0,0,0,0.024,0,0.05c0,0.075-0.075,0.149,0,0.25c0.025,0.05,0.025,0.149,0.025,0.25c0.05,0.125,0.025,0.274,0.025,0.399
					c-0.025,0.025-0.05,0.05-0.05,0.075s0.025,0.05,0.025,0.075c0,0-0.025,0.024-0.075,0.024c0.025,0.025,0.05,0.025,0.1,0.051
					c0,0.1,0,0.199,0,0.324C85.222,65.703,85.272,65.803,85.197,65.902z M75.85,71.701c0.1,0.05,0.1,0.15,0.1,0.175
					c0,0.05,0,0.075,0,0.101c0,0.024,0.025,0.074,0.025,0.1c0.025,0.025,0.05,0.075,0.025,0.15c0.025,0,0.05,0,0.1,0h0.025
					c0.05,0,0.1,0,0.15,0h0.025l0.025-0.051c0,0-0.025-0.024-0.05-0.05c-0.175-0.225-0.05-0.449-0.025-0.524
					c0.1-0.15,0.175-0.175,0.25-0.2c0-0.05,0-0.1,0-0.15c0-0.024,0-0.05,0-0.05c0-0.024,0-0.05,0-0.05v-0.075l-0.2-0.35l0.35-0.375
					l0.1,0.2c0.025,0,0.025,0,0.05,0.024c0.025-0.024,0.05-0.05,0.05-0.074l0.025-0.025c0-0.075,0.025-0.15,0.05-0.2
					c0.025-0.024,0.025-0.05,0.025-0.075c0-0.024,0-0.05,0.025-0.1c-0.075,0.05-0.15,0.1-0.25,0.1c-0.075,0-0.15-0.024-0.2-0.05
					H76.5c0,0.075-0.025,0.15-0.075,0.226c-0.05,0.05-0.1,0.074-0.175,0.074c0,0-0.025,0.025-0.025,0.051
					c-0.05,0.05-0.075,0.1-0.15,0.149c-0.025,0-0.05,0.05-0.075,0.101c-0.025,0.05-0.05,0.074-0.075,0.1l-0.1,0.175l-0.15-0.149
					c-0.05-0.025-0.1-0.075-0.125-0.15v-0.025c-0.025,0.051-0.05,0.101-0.075,0.125L75.4,70.901l-0.05-0.024
					c0.025,0.074,0.025,0.125,0.05,0.175c0,0.024,0,0.05,0.025,0.074c0.025,0,0.05,0,0.05,0c0.075,0,0.125,0.025,0.15,0.051
					c0.075,0.074,0.2,0.199,0.225,0.375c0,0.05,0,0.074,0,0.1S75.85,71.677,75.85,71.701z M75.7,62.304c0,0.024,0,0.024,0.025,0.024
					c0.075-0.024,0.1-0.074,0.125-0.125c0.025-0.124,0.175-0.175,0.25-0.175c0.05-0.024,0.1-0.05,0.125-0.074l-0.175-0.351l0.35-0.1
					c0.025-0.05,0.025-0.125,0.025-0.2l0.025-0.075c0.025-0.074,0.05-0.25,0.15-0.35l-0.075-0.075c0,0.025-0.025,0.025-0.025,0.05
					c-0.025,0.025-0.1,0.101-0.1,0.125l-0.225,0.426l-0.125,0.024c0,0.075-0.025,0.175-0.075,0.3c-0.05,0.101-0.1,0.175-0.15,0.226
					L75.7,62.304z M75.899,69.227c0-0.05-0.025-0.074-0.025-0.125c-0.025,0-0.025,0-0.05,0.025L75.899,69.227z M75.825,69.552
					c0.05-0.075,0.075-0.125,0.125-0.2c0-0.024-0.025-0.05-0.025-0.074l-0.025,0.074c-0.025,0.025-0.025,0.025-0.025,0.051
					C75.85,69.452,75.825,69.502,75.825,69.552z M77.049,74.45v-0.024l-0.075,0.024l-0.05-0.225h-0.025l-0.075-0.024
					c-0.125-0.051-0.2-0.15-0.275-0.301l-0.125,0.075l-0.075-0.175c0-0.025-0.025-0.075,0-0.125c-0.05-0.05-0.075-0.125-0.075-0.175
					c0-0.025,0-0.025,0-0.05l-0.025,0.024l-0.025-0.024l-0.05,0.1l-0.15-0.05c-0.05,0.05-0.1,0.075-0.15,0.1l0.1,0.45
					c0.05-0.05,0.1-0.075,0.175-0.1c0.025,0,0.05,0,0.05,0c0.1,0,0.2,0.05,0.25,0.25c0.025,0.05,0.025,0.124,0.025,0.199
					c0,0.025,0,0.025,0,0.025l0.15-0.25l0.15,0.274c0.025,0.101,0.075,0.101,0.15,0.125C76.974,74.525,77,74.501,77.049,74.45z
					 M76.949,72.901h-0.025c-0.05,0.074-0.125,0.125-0.225,0.175c-0.05,0.024-0.075,0.05-0.1,0.05l0.275,0.175
					c0,0,0-0.024,0.025-0.1c0-0.101,0.025-0.175,0.05-0.25c0.025,0,0.025-0.025,0.05-0.05
					C76.974,72.901,76.949,72.901,76.949,72.901z M76.899,69.602c0.025,0,0.075,0.025,0.1,0.075c0-0.025,0-0.025,0-0.05l-0.1-0.075
					C76.899,69.552,76.899,69.577,76.899,69.602z M77.274,68.802c0.025,0.025,0.05,0.05,0.075,0.075
					c0-0.075,0.025-0.175,0.075-0.225c0,0,0,0,0-0.051l-0.075-0.024l-0.025-0.075c-0.025-0.05-0.075-0.1-0.075-0.175
					s-0.05-0.125-0.125-0.2c0,0.125-0.05,0.25-0.15,0.325c0.025,0.05,0.025,0.075,0.05,0.075
					C77.199,68.577,77.274,68.627,77.274,68.802z M77.199,72.826c0.075,0.024,0.125,0.075,0.15,0.1l0.025,0.025l0.1-0.025
					l0.05-0.075c0-0.1,0-0.175,0.025-0.274c-0.1,0.025-0.175,0.1-0.3,0.225C77.249,72.801,77.224,72.826,77.199,72.826z
					 M77.324,74.201l0.325,0.074l-0.075-0.149c-0.025-0.025-0.05-0.05-0.05-0.075c-0.025,0-0.05,0.025-0.05,0.025l-0.125,0.05
					C77.349,74.15,77.324,74.176,77.324,74.201z M77.699,75.125h-0.025c-0.025,0-0.075,0-0.1,0l-0.025-0.024
					c-0.025,0-0.025,0.024-0.025,0.024c0,0.025,0.025,0.075,0.025,0.125c0.025,0,0.025,0,0.025,0c0.05,0,0.075,0.025,0.1,0.025
					C77.699,75.2,77.699,75.176,77.699,75.125z M78.199,74.076c0-0.025,0-0.025,0-0.051v-0.175h0.125l-0.05-0.075
					c-0.05-0.074-0.1-0.175-0.175-0.274c0,0,0,0,0-0.025c-0.025,0-0.025-0.024-0.025-0.024c-0.025,0.024-0.05,0.05-0.1,0.05
					c0,0.024-0.025,0.075-0.075,0.125c0.05,0.125,0.05,0.25,0.05,0.35c0.075,0.025,0.125,0.101,0.15,0.125
					c0.025,0.025,0.05,0.075,0.05,0.101l0.025,0.024c0.025,0.025,0.025,0.075,0.05,0.075c0,0,0,0.024,0.025,0.024v-0.024
					c0,0,0-0.025-0.025-0.025C78.199,74.201,78.199,74.126,78.199,74.076z M81.373,72.227c0.1-0.15,0.075-0.351,0.075-0.525
					c-0.075-0.075-0.1-0.175-0.075-0.25c0.05-0.075,0.025-0.149,0.025-0.225c0.025-0.05,0.025-0.125,0-0.175
					c0-0.075-0.025-0.125-0.025-0.175c0.025-0.226-0.05-0.45,0.025-0.676c0.025-0.024,0.025-0.05,0-0.074
					c-0.1-0.125,0.025-0.25,0.05-0.375c-0.05-0.05-0.05-0.101,0-0.15c-0.075-0.25-0.125-0.524-0.05-0.774
					c-0.075-0.101-0.025-0.226,0.025-0.325c-0.075-0.075-0.075-0.125-0.025-0.2c0.025-0.05,0-0.074,0-0.125
					c0.025-0.05,0.025-0.1-0.025-0.149c0.05-0.025,0.05-0.101,0.025-0.125c-0.05-0.075-0.05-0.15-0.025-0.2
					c0.075-0.149,0-0.325,0.075-0.45c0-0.225,0-0.449,0-0.649c0-0.025-0.025-0.05-0.025-0.075c-0.05-0.1-0.075-0.225-0.05-0.324
					c0.025-0.101,0-0.226,0.05-0.301c0-0.05-0.025-0.1,0-0.125c0.025-0.1,0.025-0.199-0.05-0.3c-0.025-0.024,0-0.075,0.025-0.125
					l-0.025-0.024c0-0.175,0-0.351,0.025-0.525c0-0.05,0-0.125,0-0.175c0.025-0.05,0.025-0.1,0-0.149
					c-0.05-0.125-0.025-0.25-0.025-0.4c0-0.399,0-0.825,0-1.225c-0.125-0.125-0.15-0.15-0.175-0.3c-0.05-0.05-0.1-0.075-0.125-0.125
					c-0.2-0.226-0.45-0.375-0.725-0.45c-0.225-0.05-0.45-0.075-0.7-0.024c-0.2,0.05-0.4,0.1-0.575,0.199
					c-0.2,0.075-0.35,0.2-0.45,0.375c-0.1,0.15-0.225,0.325-0.225,0.55c0,0.025-0.025,0.05-0.025,0.05
					c0.025,0.101,0.025,0.15,0.025,0.176c0,0.824,0,1.649,0,2.474c0,0.051,0.025,0.101,0,0.125c-0.05,0.051-0.025,0.101-0.025,0.15
					c0,0.075-0.025,0.125,0,0.175c0,0.075-0.025,0.1-0.025,0.15c0,0.05,0.025,0.125,0.025,0.175c-0.025,0.075,0,0.149,0,0.225
					c0,0.15-0.025,0.3-0.05,0.45c-0.025,0.175,0,0.375-0.025,0.575c-0.05,0.199,0,0.399-0.05,0.6c-0.025,0.1,0,0.199,0,0.3
					c0,0.125-0.025,0.274-0.125,0.399v0.025c0,0.025,0.025,0.05,0.05,0.075c-0.025,0.024-0.025,0.05-0.05,0.075
					c0.075,0.1,0.1,0.225,0.075,0.35c-0.05,0.1-0.025,0.2-0.05,0.3c0,0.05,0,0.1-0.025,0.15c-0.025,0.074-0.025,0.149,0,0.225
					c0.025,0.05,0.025,0.075,0.025,0.125c0.025,0.149,0.025,0.3,0.05,0.45c0.025,0.199,0,0.399,0.025,0.624
					c0.025,0.125,0.075,0.25,0.05,0.375c0.075,0.075,0,0.2,0.1,0.275c-0.025,0.149,0.1,0.3-0.025,0.45c0.05,0,0.075,0.024,0.1,0.05
					c-0.025,0.125,0.075,0.225,0.125,0.324c0.075,0.125,0.15,0.226,0.225,0.325c0.275,0.15,0.5,0.35,0.775,0.425
					c0.025-0.05,0.1,0.025,0.125-0.024c0.05-0.051,0.125-0.051,0.175-0.051c0.05,0,0.1,0,0.175,0c0.05,0,0.1,0,0.15-0.024
					c0.05-0.025,0.125,0,0.175,0c0.025,0,0.05,0,0.075-0.025c0.125-0.024,0.3-0.05,0.4-0.149c0.05-0.075,0.175-0.125,0.2-0.226
					c0-0.05,0.075-0.074,0.125-0.1c0-0.025,0-0.05,0-0.1c0.025,0.024,0.05,0.024,0.05,0.05
					C81.398,72.676,81.448,72.401,81.373,72.227z M78.749,74.601l-0.025-0.05c-0.025,0-0.05,0-0.05-0.025l-0.025,0.05h-0.125
					c-0.025,0-0.05,0-0.075-0.024c0.05,0.075,0.125,0.149,0.15,0.225c0.025,0,0.025,0.025,0.025,0.025
					c0.05-0.05,0.075-0.125,0.1-0.175L78.749,74.601z M78.874,76.101c-0.025-0.025-0.025-0.051-0.025-0.075
					c-0.025,0-0.025,0.024-0.025,0.024c0,0.025,0.025,0.075,0.025,0.075h0.025C78.874,76.125,78.874,76.125,78.874,76.101z
					 M79.249,60.654c0.025,0.024,0.05,0.074,0.075,0.125c0.025-0.051,0.075-0.075,0.125-0.075c-0.025-0.075,0-0.15,0.05-0.25
					c0.025-0.05,0.075-0.075,0.1-0.125v-0.05c0,0-0.025-0.025-0.025-0.05l-0.075,0.1c-0.025,0.025-0.05,0.05-0.075,0.1
					c-0.025,0.025-0.025,0.051-0.05,0.051c-0.025,0.024-0.05,0.05-0.075,0.074v0.025C79.274,60.604,79.249,60.629,79.249,60.654z
					 M80.423,75.925c0-0.024,0-0.05,0-0.074c-0.025,0-0.05,0-0.075,0c-0.025,0-0.075,0.05-0.075,0.1
					c0.025,0.025,0.05,0.05,0.075,0.075C80.374,75.976,80.398,75.95,80.423,75.925z M81.173,59.629c0,0.025,0.025,0.025,0.025,0.051
					l0.025-0.051C81.198,59.629,81.173,59.629,81.173,59.629z M81.248,61.804h0.025v0.175v-0.175h0.05c0.025,0,0.025,0,0.025,0
					c0.025-0.025,0.025-0.05,0.025-0.075l-0.075-0.149l0.025,0.024v-0.024h-0.025h-0.025c0,0.074-0.025,0.125-0.025,0.199
					C81.248,61.804,81.248,61.804,81.248,61.804z M81.523,60.704c0,0,0-0.025-0.025-0.025c-0.025,0-0.075,0.025-0.1,0.05
					c0.05,0.025,0.075,0.051,0.1,0.075L81.523,60.704z M83.798,65.053c0.025-0.05,0.025-0.125,0.1-0.175
					c0.025,0,0.025-0.025,0-0.125v-0.025c0-0.05-0.025-0.1-0.025-0.149c-0.025-0.025-0.05-0.025-0.075-0.025
					c-0.05,0.075-0.125,0.125-0.225,0.125c-0.15,0-0.25-0.1-0.275-0.225v-0.025c-0.05-0.024-0.1-0.074-0.15-0.125l-0.175-0.125
					c-0.175,0.101-0.375,0.075-0.5-0.074c-0.025,0-0.025,0-0.05,0s-0.075,0-0.1-0.025v0.025c0,0.024,0,0.05,0,0.074
					c0.05,0.025,0.075,0.075,0.075,0.125c0.05,0.15-0.075,0.375-0.075,0.4c-0.025,0.05-0.05,0.075-0.075,0.125
					c0.05,0.024,0.1,0.075,0.15,0.125c0,0,0,0,0.025,0s0.1,0.024,0.175,0.1c0.05-0.05,0.1-0.05,0.15-0.075
					c0.075-0.024,0.1-0.024,0.125-0.05c0.025-0.05,0.075-0.075,0.15-0.075h0.125h0.2l0.175,0.301L83.798,65.053z M82.773,74.025
					c0,0.025,0,0.025,0,0.025V74.025z M82.823,74.001v0.075h-0.025c0.025,0,0.025,0,0.025,0
					C82.848,74.051,82.848,74.025,82.823,74.001z M83.123,61.854l-0.15,0.05c-0.025,0-0.025,0.051-0.025,0.075
					c0,0.025,0,0.05,0,0.05c0,0.025,0,0.075-0.025,0.101c0,0.05,0,0.1-0.025,0.125c0.05,0.05,0.1,0.074,0.15,0.149
					c0.075,0,0.125,0.025,0.175,0.05c0,0,0,0,0.025,0l0.025,0.025c0.025,0,0.05,0.025,0.075,0.05l0.325,0.025
					c-0.025-0.101-0.05-0.226-0.025-0.325c0.05-0.2,0.15-0.35,0.3-0.475v-0.175v-0.025l-0.025-0.025l-0.175,0.025l-0.125-0.45
					c-0.075-0.074-0.15-0.175-0.2-0.274c-0.025-0.025-0.025-0.05-0.025-0.05c-0.025-0.025-0.025-0.025-0.05-0.025
					c-0.025-0.025-0.05-0.025-0.075-0.05c-0.025-0.025-0.05-0.025-0.075-0.05c0.025,0.125-0.05,0.199-0.075,0.225
					c-0.025,0.025-0.075,0.075-0.125,0.1l-0.075,0.051c0.025,0.1,0.05,0.175,0.075,0.274c0.025,0.075,0.05,0.175,0.05,0.25
					L83.123,61.854z M84.172,66.027c-0.05,0-0.125-0.05-0.15-0.125c-0.025,0.025-0.05,0.025-0.075,0.025h-0.05c0,0,0,0-0.025,0
					c0,0-0.025,0-0.025,0.025c-0.025,0.074-0.05,0.1-0.05,0.149c-0.025,0.025-0.025,0.025,0,0.05c0,0.025,0.025,0.051,0.025,0.075
					l0.3-0.05C84.147,66.128,84.147,66.078,84.172,66.027z M84.473,63.278l-0.25-0.375l0.075-0.1l-0.075,0.05
					c-0.025,0-0.05,0.025-0.1,0.1c-0.025,0.051-0.075,0.075-0.1,0.101c0.025,0.074,0.075,0.175,0.075,0.274c0.075,0,0.15,0,0.2,0
					c0.05,0,0.075,0,0.125-0.024C84.447,63.304,84.447,63.278,84.473,63.278z"/>
				<path fill="#001259" d="M96.697,65.902c-0.025,0.051,0.075,0.101,0,0.15c0.05,0.075-0.025,0.15,0,0.25
					c0.025,0.05,0.05,0.125,0.025,0.175c0,0.05-0.025,0.125-0.025,0.175s0,0.101,0,0.15c-0.025,0.425-0.025,0.85-0.05,1.3
					c0,0.074-0.025,0.175-0.05,0.25c-0.025,0.149-0.051,0.324,0.024,0.475c0,0,0,0.024,0,0.05c-0.1,0.2-0.024,0.425-0.05,0.649
					c0,0.051-0.025,0.075-0.025,0.125c0.051,0.075,0.025,0.15,0,0.25c0,0.025-0.024,0.051-0.024,0.075
					c0.024,0.05,0.024,0.101,0.024,0.125c0,0.075,0,0.125-0.024,0.175c0,0.075,0.024,0.101,0.05,0.15s0,0.1,0,0.125
					c0,0.625,0,1.249,0,1.85c0,0.125-0.025,0.225-0.05,0.324c0,0.101,0.05,0.226-0.024,0.301c0,0.25-0.076,0.475-0.125,0.699
					c-0.025,0.101-0.076,0.226-0.125,0.325c-0.125,0.3-0.275,0.575-0.451,0.825c-0.049,0.074-0.1,0.149-0.174,0.225
					c-0.051,0.1-0.15,0.175-0.2,0.274c-0.075,0.075-0.175,0.101-0.226,0.2c-0.05,0.101-0.149,0.15-0.25,0.2
					c-0.074,0.075-0.149,0.149-0.225,0.2c-0.074,0.05-0.175,0.125-0.25,0.175c-0.25,0.1-0.449,0.274-0.725,0.35
					c-0.175,0.05-0.325,0.15-0.525,0.2c-0.149,0.05-0.299,0.125-0.475,0.125c-0.1,0-0.199,0.024-0.225,0
					c-0.025,0.024-0.025,0.05-0.051,0.075c-0.049,0-0.1,0-0.174,0c-0.051,0-0.101,0.024-0.15,0.05
					c-0.075,0.024-0.1-0.075-0.175-0.025c0,0-0.025-0.024-0.075-0.05c0,0.05-0.025,0.1-0.025,0.1c-0.324,0-0.6,0.025-0.875,0
					c-0.1,0-0.174-0.024-0.25-0.024c-0.1-0.025-0.174,0.024-0.249-0.05c-0.125,0.024-0.226-0.025-0.351-0.051
					c-0.125,0-0.274-0.05-0.399-0.1c-0.25-0.075-0.476-0.125-0.7-0.225c-0.175-0.05-0.324-0.125-0.425-0.275
					c-0.024,0-0.05,0.025-0.075,0.05c-0.1-0.074-0.225-0.149-0.35-0.225c-0.1-0.075-0.225-0.175-0.325-0.25
					c-0.125-0.075-0.25-0.175-0.35-0.274c0-0.051,0-0.075,0-0.125c-0.025,0-0.05,0-0.075,0c-0.025-0.101-0.05-0.176-0.15-0.226
					c-0.075-0.024-0.125-0.1-0.15-0.175c-0.125-0.175-0.175-0.375-0.35-0.524c-0.025-0.025-0.05-0.051-0.05-0.101
					c0,0,0,0,0.025-0.024c-0.075-0.101-0.025-0.226-0.05-0.351c-0.025,0-0.05,0-0.075,0c-0.05-0.074-0.125-0.1-0.125-0.199
					c-0.025-0.075-0.075-0.15-0.075-0.25c0-0.025-0.05-0.051-0.05-0.075c0-0.175,0-0.35-0.025-0.525
					c-0.025-0.024-0.05-0.024-0.075-0.024c-0.025-0.075,0-0.175-0.075-0.25c0-0.175-0.125-0.325-0.025-0.5
					c0-0.025-0.025-0.05-0.05-0.075c0.025-0.024,0.05-0.05,0.05-0.1c0,0-0.025-0.025-0.025-0.05l0.025-0.025
					c-0.025-0.025-0.05-0.05-0.075-0.1c0-0.051-0.025-0.125,0.025-0.2c0.025-0.025,0-0.075-0.025-0.175c0,0.024,0.025,0,0.025-0.025
					c0-0.075-0.025-0.149-0.025-0.225s-0.075-0.15-0.05-0.225c0.025-0.075,0-0.15,0-0.226c0-0.1,0-0.175,0-0.25
					s-0.025-0.175,0.025-0.225c-0.075-0.475-0.1-0.925-0.025-1.425c0,0-0.025,0-0.025-0.025c0.025-0.074,0.025-0.074,0.025-0.199
					c0.025-0.025,0.05-0.051,0.075-0.075c0-0.075,0-0.175-0.025-0.25c-0.075-0.125-0.05-0.225-0.05-0.35c0-0.075,0.05-0.15,0.05-0.2
					c0.025-0.025,0.05-0.05,0.025-0.05c-0.05-0.175,0.05-0.351,0-0.525c0,0-0.025-0.024-0.025-0.05c0.025,0,0.05,0,0.075-0.025
					c-0.1-0.125,0.025-0.249,0-0.374c0-0.125-0.025-0.275,0.05-0.4c-0.05-0.025-0.05-0.075-0.05-0.125c0-0.425,0-0.825,0-1.25
					c0-0.1,0.025-0.199,0.075-0.3c0-0.05,0.025-0.074,0-0.1c-0.05-0.15-0.05-0.3-0.075-0.45c0-0.149,0-0.3,0-0.449
					c0.025-0.15,0.025-0.275,0.05-0.426c0-0.024,0.025-0.024,0.025-0.024c-0.025-0.075-0.05-0.15-0.05-0.225
					c0.025-0.325,0.05-0.676,0.15-1c0.025,0,0.05,0,0.05,0c0.05-0.125,0.1-0.25,0.125-0.351c0-0.024,0-0.024,0-0.024
					c0.025-0.05,0.05-0.101,0.075-0.15c0,0-0.025-0.024,0-0.024c0.05-0.075,0.125-0.125,0.15-0.2c0.025-0.075,0.025-0.175,0.05-0.25
					c0.05-0.125,0.075-0.225,0.175-0.3c0.025-0.025,0.025-0.075,0.05-0.101c0.025,0,0.05,0,0.1,0c0-0.024,0.025-0.074,0.05-0.1
					c0.05-0.125,0.2-0.325,0.325-0.425c0.05-0.025,0.075-0.075,0.125-0.1c0.025-0.025,0.075-0.051,0.1-0.101
					c0.025-0.074,0.075-0.1,0.175-0.1c0-0.025,0.025-0.05,0.025-0.075c0,0,0.025,0.025,0.05,0.025c0.15-0.226,0.4-0.351,0.65-0.476
					c0,0,0.024,0,0.024,0.025c0.075,0,0.101-0.075,0.15-0.1c0.05-0.051,0.15-0.075,0.225-0.101c0.051-0.024,0.125-0.075,0.176,0
					c0.074-0.125,0.149-0.149,0.25-0.125c0.049-0.1,0.174-0.1,0.25-0.125c0.225-0.05,0.475-0.074,0.699-0.125
					c0.025,0,0.025-0.024,0.05-0.024c0.101,0.05,0.101,0.05,0.3-0.05c0.025,0,0.051,0.05,0.075,0.05
					c0.175-0.025,0.375,0.05,0.55-0.05c0.051,0.074,0.1-0.025,0.125,0c0.051,0,0.1,0.024,0.15,0.024c0.05,0,0.074,0,0.125,0.025
					c0.05,0,0.1-0.025,0.149,0c0.025,0,0.075,0.024,0.125,0.024c0,0.025,0.025,0.025,0.025,0.051c0.024-0.025,0.05-0.051,0.05-0.051
					c0.075,0,0.125,0,0.199,0c0.201,0.101,0.426,0.025,0.625,0.176c0.125-0.025,0.226,0.024,0.326,0.074
					c0.1-0.074,0.149,0.101,0.249,0.05c0.025,0.025,0.025,0.051,0.025,0.075c0.05,0,0.075,0,0.1,0
					c0.05,0.05,0.075,0.075,0.125,0.125c0.05-0.024,0.175,0,0.25,0.05c0.2,0.075,0.399,0.176,0.575,0.325
					c0.05,0.025,0.1,0.05,0.125,0.075c0.074,0.175,0.25,0.25,0.375,0.35c0.074,0.05,0.175,0.075,0.199,0.2
					c0,0.025,0.051,0.025,0.101,0.05c0,0.025,0,0.075,0,0.075c0.024,0.125,0.149,0.125,0.2,0.225c0.049,0,0.024,0.05,0.049,0.075
					c0.125,0.15,0.176,0.325,0.275,0.475c0.051,0.075,0.051,0.15,0.051,0.226c0.024,0,0.024,0.024,0.049,0.024
					c0.051,0.075,0.076,0.15,0.125,0.2c0.025,0.1,0.051,0.175,0.076,0.275c0.024,0.074,0.049,0.149,0.024,0.25
					c0.149,0.05,0.101,0.225,0.175,0.324c-0.025,0.101,0.1,0.226,0,0.351c0.075,0.1,0.1,0.25,0.125,0.374
					c0.05,0.25,0.1,0.5,0.075,0.775c0,0.024,0.075,0.05,0.024,0.1c-0.024,0,0.025,0.05,0.025,0.101c0,0,0,0.024,0,0.05
					c0,0.075-0.075,0.149,0,0.25c0.025,0.05,0.025,0.149,0.025,0.25c0.05,0.125,0.024,0.274,0.024,0.399
					c-0.024,0.025-0.05,0.05-0.05,0.075s0.025,0.05,0.025,0.075c0,0-0.025,0.024-0.075,0.024c0.024,0.025,0.05,0.025,0.1,0.051
					c0,0.1,0,0.199,0,0.324C96.723,65.703,96.772,65.803,96.697,65.902z M87.35,71.701c0.1,0.05,0.1,0.15,0.1,0.175
					c0,0.05,0,0.075,0,0.101c0,0.024,0.025,0.074,0.025,0.1c0.025,0.025,0.05,0.075,0.025,0.15c0.025,0,0.05,0,0.1,0h0.025
					c0.05,0,0.1,0,0.15,0h0.025l0.025-0.051c0,0-0.025-0.024-0.05-0.05c-0.175-0.225-0.05-0.449-0.025-0.524
					c0.1-0.15,0.175-0.175,0.25-0.2c0-0.05,0-0.1,0-0.15c0-0.024,0-0.05,0-0.05c0-0.024,0-0.05,0-0.05v-0.075l-0.2-0.35l0.35-0.375
					l0.1,0.2c0.025,0,0.025,0,0.05,0.024c0.025-0.024,0.05-0.05,0.05-0.074l0.025-0.025c0-0.075,0.025-0.15,0.05-0.2
					c0.025-0.024,0.025-0.05,0.025-0.075c0-0.024,0-0.05,0.025-0.1c-0.075,0.05-0.15,0.1-0.25,0.1c-0.075,0-0.15-0.024-0.2-0.05H88
					c0,0.075-0.025,0.15-0.075,0.226c-0.05,0.05-0.1,0.074-0.175,0.074c0,0-0.025,0.025-0.025,0.051
					c-0.05,0.05-0.075,0.1-0.15,0.149c-0.025,0-0.05,0.05-0.075,0.101c-0.025,0.05-0.05,0.074-0.075,0.1l-0.1,0.175l-0.15-0.149
					c-0.05-0.025-0.1-0.075-0.125-0.15v-0.025c-0.025,0.051-0.05,0.101-0.075,0.125L86.9,70.901l-0.05-0.024
					c0.025,0.074,0.025,0.125,0.05,0.175c0,0.024,0,0.05,0.025,0.074c0.025,0,0.05,0,0.05,0c0.075,0,0.125,0.025,0.15,0.051
					c0.075,0.074,0.2,0.199,0.225,0.375c0,0.05,0,0.074,0,0.1S87.35,71.677,87.35,71.701z M87.2,62.304c0,0.024,0,0.024,0.025,0.024
					c0.075-0.024,0.1-0.074,0.125-0.125c0.025-0.124,0.175-0.175,0.25-0.175c0.05-0.024,0.1-0.05,0.125-0.074l-0.175-0.351l0.35-0.1
					c0.025-0.05,0.025-0.125,0.025-0.2l0.025-0.075c0.025-0.074,0.05-0.25,0.15-0.35l-0.075-0.075c0,0.025-0.025,0.025-0.025,0.05
					c-0.025,0.025-0.1,0.101-0.1,0.125l-0.225,0.426l-0.125,0.024c0,0.075-0.025,0.175-0.075,0.3c-0.05,0.101-0.1,0.175-0.15,0.226
					L87.2,62.304z M87.399,69.227c0-0.05-0.025-0.074-0.025-0.125c-0.025,0-0.025,0-0.05,0.025L87.399,69.227z M87.325,69.552
					c0.05-0.075,0.075-0.125,0.125-0.2c0-0.024-0.025-0.05-0.025-0.074l-0.025,0.074c-0.025,0.025-0.025,0.025-0.025,0.051
					C87.35,69.452,87.325,69.502,87.325,69.552z M88.549,74.45v-0.024l-0.075,0.024l-0.05-0.225h-0.025l-0.075-0.024
					c-0.125-0.051-0.2-0.15-0.275-0.301l-0.125,0.075l-0.075-0.175c0-0.025-0.025-0.075,0-0.125c-0.05-0.05-0.075-0.125-0.075-0.175
					c0-0.025,0-0.025,0-0.05l-0.025,0.024l-0.025-0.024l-0.05,0.1l-0.15-0.05c-0.05,0.05-0.1,0.075-0.15,0.1l0.1,0.45
					c0.05-0.05,0.1-0.075,0.175-0.1c0.025,0,0.05,0,0.05,0c0.1,0,0.2,0.05,0.25,0.25c0.025,0.05,0.025,0.124,0.025,0.199
					c0,0.025,0,0.025,0,0.025l0.15-0.25l0.15,0.274c0.025,0.101,0.075,0.101,0.15,0.125C88.474,74.525,88.5,74.501,88.549,74.45z
					 M88.449,72.901h-0.025c-0.05,0.074-0.125,0.125-0.225,0.175c-0.05,0.024-0.075,0.05-0.1,0.05l0.275,0.175
					c0,0,0-0.024,0.025-0.1c0-0.101,0.025-0.175,0.05-0.25c0.025,0,0.025-0.025,0.05-0.05
					C88.474,72.901,88.449,72.901,88.449,72.901z M88.399,69.602c0.025,0,0.075,0.025,0.1,0.075c0-0.025,0-0.025,0-0.05l-0.1-0.075
					C88.399,69.552,88.399,69.577,88.399,69.602z M88.774,68.802c0.024,0.025,0.05,0.05,0.075,0.075
					c0-0.075,0.024-0.175,0.074-0.225c0,0,0,0,0-0.051l-0.074-0.024l-0.025-0.075c-0.025-0.05-0.075-0.1-0.075-0.175
					s-0.05-0.125-0.125-0.2c0,0.125-0.05,0.25-0.15,0.325c0.025,0.05,0.025,0.075,0.05,0.075
					C88.699,68.577,88.774,68.627,88.774,68.802z M88.699,72.826c0.075,0.024,0.125,0.075,0.15,0.1l0.024,0.025l0.101-0.025
					l0.05-0.075c0-0.1,0-0.175,0.024-0.274c-0.1,0.025-0.175,0.1-0.3,0.225C88.749,72.801,88.725,72.826,88.699,72.826z
					 M88.824,74.201l0.324,0.074l-0.074-0.149c-0.025-0.025-0.05-0.05-0.05-0.075c-0.025,0-0.05,0.025-0.05,0.025l-0.125,0.05
					C88.85,74.15,88.824,74.176,88.824,74.201z M89.199,75.125h-0.025c-0.025,0-0.074,0-0.1,0l-0.025-0.024
					c-0.024,0-0.024,0.024-0.024,0.024c0,0.025,0.024,0.075,0.024,0.125c0.025,0,0.025,0,0.025,0c0.05,0,0.074,0.025,0.1,0.025
					C89.199,75.2,89.199,75.176,89.199,75.125z M89.699,74.076c0-0.025,0-0.025,0-0.051v-0.175h0.125l-0.051-0.075
					c-0.049-0.074-0.1-0.175-0.174-0.274c0,0,0,0,0-0.025c-0.025,0-0.025-0.024-0.025-0.024c-0.025,0.024-0.051,0.05-0.1,0.05
					c0,0.024-0.025,0.075-0.076,0.125c0.051,0.125,0.051,0.25,0.051,0.35c0.074,0.025,0.125,0.101,0.15,0.125
					c0.024,0.025,0.049,0.075,0.049,0.101l0.025,0.024c0.025,0.025,0.025,0.075,0.051,0.075c0,0,0,0.024,0.024,0.024v-0.024
					c0,0,0-0.025-0.024-0.025C89.699,74.201,89.699,74.126,89.699,74.076z M92.873,72.227c0.1-0.15,0.075-0.351,0.075-0.525
					c-0.075-0.075-0.101-0.175-0.075-0.25c0.051-0.075,0.025-0.149,0.025-0.225c0.025-0.05,0.025-0.125,0-0.175
					c0-0.075-0.025-0.125-0.025-0.175c0.025-0.226-0.05-0.45,0.025-0.676c0.025-0.024,0.025-0.05,0-0.074
					c-0.1-0.125,0.025-0.25,0.05-0.375c-0.05-0.05-0.05-0.101,0-0.15c-0.075-0.25-0.125-0.524-0.05-0.774
					c-0.075-0.101-0.025-0.226,0.025-0.325c-0.076-0.075-0.076-0.125-0.025-0.2c0.025-0.05,0-0.074,0-0.125
					c0.025-0.05,0.025-0.1-0.025-0.149c0.051-0.025,0.051-0.101,0.025-0.125c-0.051-0.075-0.051-0.15-0.025-0.2
					c0.075-0.149,0-0.325,0.075-0.45c0-0.225,0-0.449,0-0.649c0-0.025-0.024-0.05-0.024-0.075c-0.051-0.1-0.076-0.225-0.051-0.324
					c0.025-0.101,0-0.226,0.051-0.301c0-0.05-0.025-0.1,0-0.125c0.024-0.1,0.024-0.199-0.051-0.3c-0.025-0.024,0-0.075,0.025-0.125
					l-0.025-0.024c0-0.175,0-0.351,0.025-0.525c0-0.05,0-0.125,0-0.175c0.025-0.05,0.025-0.1,0-0.149
					c-0.051-0.125-0.025-0.25-0.025-0.4c0-0.399,0-0.825,0-1.225c-0.125-0.125-0.15-0.15-0.175-0.3
					c-0.05-0.05-0.101-0.075-0.125-0.125c-0.2-0.226-0.45-0.375-0.725-0.45c-0.226-0.05-0.45-0.075-0.7-0.024
					c-0.199,0.05-0.4,0.1-0.574,0.199c-0.2,0.075-0.351,0.2-0.45,0.375c-0.101,0.15-0.226,0.325-0.226,0.55
					c0,0.025-0.024,0.05-0.024,0.05c0.024,0.101,0.024,0.15,0.024,0.176c0,0.824,0,1.649,0,2.474c0,0.051,0.025,0.101,0,0.125
					c-0.049,0.051-0.024,0.101-0.024,0.15c0,0.075-0.024,0.125,0,0.175c0,0.075-0.024,0.1-0.024,0.15
					c0,0.05,0.024,0.125,0.024,0.175c-0.024,0.075,0,0.149,0,0.225c0,0.15-0.024,0.3-0.05,0.45c-0.025,0.175,0,0.375-0.025,0.575
					c-0.05,0.199,0,0.399-0.05,0.6c-0.024,0.1,0,0.199,0,0.3c0,0.125-0.024,0.274-0.125,0.399v0.025c0,0.025,0.024,0.05,0.05,0.075
					c-0.025,0.024-0.025,0.05-0.05,0.075c0.075,0.1,0.101,0.225,0.075,0.35c-0.051,0.1-0.025,0.2-0.051,0.3c0,0.05,0,0.1-0.024,0.15
					c-0.024,0.074-0.024,0.149,0,0.225c0.024,0.05,0.024,0.075,0.024,0.125c0.025,0.149,0.025,0.3,0.051,0.45
					c0.025,0.199,0,0.399,0.025,0.624c0.024,0.125,0.074,0.25,0.049,0.375c0.076,0.075,0,0.2,0.101,0.275
					c-0.024,0.149,0.101,0.3-0.024,0.45c0.049,0,0.074,0.024,0.1,0.05c-0.025,0.125,0.074,0.225,0.125,0.324
					c0.074,0.125,0.149,0.226,0.225,0.325c0.275,0.15,0.5,0.35,0.775,0.425c0.024-0.05,0.1,0.025,0.125-0.024
					c0.049-0.051,0.125-0.051,0.174-0.051c0.051,0,0.101,0,0.176,0c0.05,0,0.1,0,0.15-0.024c0.049-0.025,0.124,0,0.174,0
					c0.025,0,0.051,0,0.075-0.025c0.125-0.024,0.3-0.05,0.399-0.149c0.051-0.075,0.176-0.125,0.201-0.226
					c0-0.05,0.074-0.074,0.125-0.1c0-0.025,0-0.05,0-0.1c0.024,0.024,0.049,0.024,0.049,0.05
					C92.898,72.676,92.948,72.401,92.873,72.227z M90.249,74.601l-0.025-0.05c-0.024,0-0.05,0-0.05-0.025l-0.025,0.05h-0.125
					c-0.024,0-0.049,0-0.074-0.024c0.05,0.075,0.125,0.149,0.15,0.225c0.024,0,0.024,0.025,0.024,0.025
					c0.05-0.05,0.075-0.125,0.1-0.175L90.249,74.601z M90.374,76.101c-0.025-0.025-0.025-0.051-0.025-0.075
					c-0.024,0-0.024,0.024-0.024,0.024c0,0.025,0.024,0.075,0.024,0.075h0.025C90.374,76.125,90.374,76.125,90.374,76.101z
					 M90.748,60.654c0.025,0.024,0.051,0.074,0.076,0.125c0.024-0.051,0.074-0.075,0.125-0.075c-0.025-0.075,0-0.15,0.049-0.25
					c0.025-0.05,0.076-0.075,0.101-0.125v-0.05c0,0-0.024-0.025-0.024-0.05l-0.076,0.1c-0.024,0.025-0.049,0.05-0.074,0.1
					c-0.025,0.025-0.025,0.051-0.051,0.051c-0.024,0.024-0.049,0.05-0.074,0.074v0.025C90.773,60.604,90.748,60.629,90.748,60.654z
					 M91.924,75.925c0-0.024,0-0.05,0-0.074c-0.025,0-0.051,0-0.075,0c-0.025,0-0.075,0.05-0.075,0.1
					c0.025,0.025,0.05,0.05,0.075,0.075C91.873,75.976,91.898,75.95,91.924,75.925z M92.674,59.629c0,0.025,0.024,0.025,0.024,0.051
					l0.024-0.051C92.698,59.629,92.674,59.629,92.674,59.629z M92.748,61.804h0.025v0.175v-0.175h0.05c0.024,0,0.024,0,0.024,0
					c0.025-0.025,0.025-0.05,0.025-0.075l-0.074-0.149l0.024,0.024v-0.024h-0.024h-0.025c0,0.074-0.025,0.125-0.025,0.199
					C92.748,61.804,92.748,61.804,92.748,61.804z M93.023,60.704c0,0,0-0.025-0.025-0.025s-0.074,0.025-0.1,0.05
					c0.05,0.025,0.074,0.051,0.1,0.075L93.023,60.704z M95.298,65.053c0.024-0.05,0.024-0.125,0.1-0.175
					c0.025,0,0.025-0.025,0-0.125v-0.025c0-0.05-0.024-0.1-0.024-0.149c-0.025-0.025-0.051-0.025-0.075-0.025
					c-0.05,0.075-0.125,0.125-0.226,0.125c-0.149,0-0.25-0.1-0.274-0.225v-0.025c-0.05-0.024-0.101-0.074-0.149-0.125l-0.176-0.125
					c-0.175,0.101-0.375,0.075-0.5-0.074c-0.025,0-0.025,0-0.05,0s-0.075,0-0.1-0.025v0.025c0,0.024,0,0.05,0,0.074
					c0.05,0.025,0.075,0.075,0.075,0.125c0.049,0.15-0.075,0.375-0.075,0.4c-0.025,0.05-0.05,0.075-0.075,0.125
					c0.05,0.024,0.1,0.075,0.15,0.125c0,0,0,0,0.024,0s0.101,0.024,0.175,0.1c0.051-0.05,0.1-0.05,0.15-0.075
					c0.074-0.024,0.1-0.024,0.125-0.05c0.025-0.05,0.074-0.075,0.15-0.075h0.125h0.199l0.175,0.301L95.298,65.053z M94.273,74.025
					c0,0.025,0,0.025,0,0.025V74.025z M94.322,74.001v0.075h-0.024c0.024,0,0.024,0,0.024,0
					C94.348,74.051,94.348,74.025,94.322,74.001z M94.623,61.854l-0.15,0.05c-0.025,0-0.025,0.051-0.025,0.075
					c0,0.025,0,0.05,0,0.05c0,0.025,0,0.075-0.024,0.101c0,0.05,0,0.1-0.024,0.125c0.049,0.05,0.1,0.074,0.149,0.149
					c0.075,0,0.125,0.025,0.175,0.05c0,0,0,0,0.025,0l0.025,0.025c0.024,0,0.049,0.025,0.074,0.05l0.325,0.025
					c-0.025-0.101-0.05-0.226-0.025-0.325c0.05-0.2,0.15-0.35,0.3-0.475v-0.175v-0.025l-0.024-0.025l-0.175,0.025l-0.125-0.45
					c-0.075-0.074-0.15-0.175-0.2-0.274c-0.024-0.025-0.024-0.05-0.024-0.05c-0.025-0.025-0.025-0.025-0.051-0.025
					c-0.025-0.025-0.05-0.025-0.074-0.05c-0.025-0.025-0.051-0.025-0.076-0.05c0.025,0.125-0.049,0.199-0.074,0.225
					s-0.075,0.075-0.125,0.1l-0.075,0.051c0.024,0.1,0.05,0.175,0.075,0.274c0.025,0.075,0.05,0.175,0.05,0.25L94.623,61.854z
					 M95.672,66.027c-0.049,0-0.125-0.05-0.149-0.125c-0.024,0.025-0.05,0.025-0.075,0.025h-0.05c0,0,0,0-0.024,0
					c0,0-0.025,0-0.025,0.025c-0.025,0.074-0.05,0.1-0.05,0.149c-0.025,0.025-0.025,0.025,0,0.05c0,0.025,0.024,0.051,0.024,0.075
					l0.301-0.05C95.647,66.128,95.647,66.078,95.672,66.027z M95.973,63.278l-0.25-0.375l0.074-0.1l-0.074,0.05
					c-0.025,0-0.051,0.025-0.1,0.1c-0.025,0.051-0.076,0.075-0.101,0.101c0.024,0.074,0.075,0.175,0.075,0.274
					c0.074,0,0.15,0,0.199,0c0.051,0,0.076,0,0.125-0.024C95.947,63.304,95.947,63.278,95.973,63.278z"/>
				<path fill="#001259" d="M107.722,66.978c0,0.149,0,0.325,0,0.475c0,0.175,0,0.325,0,0.5c-0.024,0.075-0.05,0.15-0.075,0.25
					c0,0.025,0,0.05,0,0.1c0,0.025-0.024,0.051-0.074,0.101c0.05,0.024,0.074,0.05,0.1,0.1c0,0.4-0.025,0.775,0,1.175
					c0.075,0.7,0.025,1.399,0.05,2.1c0,0.149-0.024,0.3-0.075,0.425c-0.024,0.05,0.025,0.1,0.025,0.125
					c-0.05,0.075,0.075,0.125-0.025,0.175c0,0.05,0,0.125,0,0.175c-0.024,0.075,0,0.125-0.049,0.2c-0.025,0.05,0,0.125,0,0.2
					c-0.025,0.05-0.051,0.1-0.076,0.149c0.076,0.051-0.024,0.101-0.024,0.175c0.024,0.051,0,0.101-0.024,0.15
					c-0.051,0.2-0.101,0.375-0.176,0.55c-0.05,0.125-0.1,0.25-0.15,0.375c-0.024,0.025-0.049,0.075-0.074,0.125
					c-0.1,0.1-0.125,0.225-0.2,0.35c-0.101,0.125-0.2,0.275-0.35,0.351c-0.025,0.024-0.025,0.05-0.05,0.074
					c-0.051,0.15-0.075,0.176-0.2,0.2c-0.025,0.025-0.025,0.075-0.05,0.075c-0.15,0.125-0.275,0.225-0.426,0.35
					c-0.25,0.15-0.524,0.275-0.774,0.4s-0.5,0.225-0.774,0.274c-0.25,0.05-0.475,0.15-0.75,0.175c-0.075,0.051-0.2,0-0.275,0.051
					c-0.1,0.024-0.175,0-0.274,0.024c-0.101,0-0.2,0.025-0.3,0.025c-0.075,0.024-0.2-0.025-0.275,0.024
					c-0.125,0.051-0.25,0.025-0.375,0.025c-0.574,0-1.149,0-1.725,0c-0.324,0-0.625-0.05-0.949-0.05
					c-0.301,0.024-0.625,0.024-0.925,0.024c-0.05-0.05-0.075-0.05-0.101-0.074c-0.074,0-0.149,0-0.199,0.024
					c-0.075,0-0.15-0.024-0.2-0.05c-0.024-0.025-0.05-0.125-0.125-0.125c-0.024-0.05-0.024-0.1-0.05-0.15
					c0-0.05,0.025-0.074,0.05-0.149c-0.05,0.025-0.05,0.05-0.075,0.075c-0.025-0.05-0.025-0.101-0.025-0.15
					c-0.024-0.024-0.049-0.024-0.074-0.05c-0.025-0.075,0.05-0.175-0.051-0.225c0-0.025,0.025-0.025,0.025-0.051
					c0.051-0.024,0-0.1,0.051-0.125c0.074-0.05-0.051-0.1,0-0.149c0.024-0.05,0-0.125,0.024-0.175
					c-0.024-0.025-0.075-0.05-0.101-0.075c0-0.05,0.025-0.1,0.025-0.125c0-0.05-0.025-0.075-0.025-0.125c0-0.075-0.024-0.15,0-0.225
					c0.051-0.075,0-0.15,0-0.226c0.025-0.074,0-0.149,0-0.25c0.025-0.074,0.025-0.149,0.051-0.225c0-0.05-0.025-0.125,0-0.149
					c0.05-0.051-0.025-0.075,0-0.125c0-0.051,0-0.101,0-0.15c0.025-0.025,0.05-0.025,0.074-0.025c0-0.05,0-0.074,0-0.1
					c-0.074-0.275-0.024-0.575-0.024-0.85c-0.024-0.025,0.024-0.075,0.024-0.101c0.025-0.074,0.051-0.175,0.025-0.249
					c-0.05-0.075,0-0.176-0.025-0.25c-0.024,0-0.024,0-0.024-0.025c0,0,0.024-0.025,0.024-0.05c-0.074-0.2-0.024-0.4-0.024-0.6
					c0-0.101,0.024-0.226,0.05-0.351c0,0-0.025-0.024-0.025-0.05c0.025-0.025,0.025-0.025,0.051-0.05
					c-0.025-0.025-0.051-0.05-0.075-0.05c0-0.051-0.024-0.101,0-0.125c0.05-0.05-0.05-0.101,0-0.175
					c0.05-0.051,0.05-0.15,0.024-0.226c-0.074-0.2-0.024-0.399-0.024-0.625c-0.024-0.05,0.024-0.125,0-0.175s0.024-0.1,0.024-0.149
					c0-0.051-0.024-0.101-0.024-0.2c0,0,0,0,0.024-0.05c0,0,0-0.025-0.024-0.05c0.024-0.051,0.05-0.125,0.024-0.176
					c-0.049-0.125-0.024-0.274-0.024-0.399c0-0.101-0.05-0.2,0.024-0.3c-0.125-0.05,0.076-0.15-0.024-0.2
					c0-0.025,0.024-0.025,0.024-0.05c0-0.025-0.024-0.05-0.049-0.101c0.1-0.125,0.1-0.274,0.1-0.425l-0.025-0.024h0.025
					c-0.125-0.125-0.1-0.275-0.075-0.4c0-0.075,0.024-0.125-0.024-0.175c0.074-0.1,0.024-0.25,0.074-0.35
					c0-0.025,0.025-0.05,0.025-0.101c-0.025-0.05-0.051-0.1-0.051-0.149s0.051-0.125,0.051-0.15c-0.075-0.199-0.025-0.399-0.051-0.6
					c0-0.1,0.051-0.175,0.051-0.275c0-0.149,0.025-0.3-0.051-0.475c-0.024-0.075-0.024-0.175-0.024-0.25
					c0-0.1,0.024-0.175,0.024-0.274c0-0.05-0.024-0.075-0.024-0.125c0,0,0.05-0.025,0.05-0.05c0.051-0.2,0-0.375-0.05-0.551
					c-0.024-0.074-0.024-0.149,0-0.225c0.05-0.175,0.05-0.325,0-0.475c-0.024-0.1-0.024-0.2,0-0.275c0-0.175-0.05-0.375,0.024-0.524
					c-0.074-0.05,0-0.101,0-0.15s0-0.074-0.024-0.125c0.024-0.024,0.024-0.1,0.05-0.149l-0.025-0.025
					c0.025-0.175-0.049-0.325-0.049-0.5c0.024-0.425,0-0.85,0.024-1.3c0-0.05,0-0.074,0-0.149c0,0,0-0.025-0.024-0.05
					c0.024-0.025,0.049-0.05,0.049-0.075c-0.074-0.15,0-0.275,0.076-0.4c0,0-0.025-0.024-0.051-0.05
					c0.051-0.075,0.125-0.149,0.176-0.25c0.024-0.1,0.149-0.1,0.174-0.199c0.051,0,0.075,0,0.101,0c0-0.025,0.024-0.051,0.024-0.075
					c0.125,0.024,0.2-0.025,0.301-0.075c0,0,0.024,0,0.024,0.025c0.125-0.075,0.274-0.125,0.425-0.051
					c0.025,0.025,0.051,0.025,0.075,0.025c0.149,0,0.325,0,0.5,0c0.024,0,0.05-0.025,0.075-0.05c0.025,0.024,0.025,0.024,0.05,0.05
					c0-0.025,0.024-0.05,0.024-0.05c0.2,0.075,0.4,0,0.575,0.05c0.149,0.025,0.274,0.05,0.399,0.075c0.101,0,0.226,0.024,0.326-0.05
					c0.024,0,0.1,0,0.125,0c0.149,0.1,0.299,0.024,0.449,0.05c0.075-0.075,0.175-0.05,0.275-0.05c0.1,0.024,0.199,0,0.274,0.1
					c0.075-0.025,0.175,0.025,0.226-0.05c0.024,0.024,0.049,0.05,0.074,0.024c0.15-0.05,0.325,0.051,0.475,0.025
					c0.025-0.025,0.075,0,0.101,0.025c0.1,0.024,0.2,0.05,0.274,0.074c0.051,0.025,0.075,0,0.125,0c0.025,0,0.075-0.05,0.1-0.024
					c0.25,0.074,0.5,0.074,0.726,0.149c0.075,0.025,0.125,0.05,0.175,0.075c0,0,0.025,0,0.051-0.025
					c0.024,0.025,0.049,0.051,0.074,0.075c0.025,0,0.05,0,0.075-0.024c0.524,0.199,1.05,0.375,1.499,0.774c0,0,0.025,0,0.075,0
					c0.05,0.05,0.101,0.125,0.15,0.2c0.024,0,0.05,0,0.05,0c0.125,0.1,0.225,0.2,0.324,0.3c0,0.05,0,0.125,0.101,0.149
					c0.075,0.025,0.125,0.075,0.125,0.176c0.175,0.199,0.325,0.425,0.375,0.699v0.025c0.024,0.1,0.05,0.175,0.075,0.274
					c0.125,0.051,0.125,0.051,0.074,0.2c0.025,0,0.051,0,0.051,0c0.1,0.225,0.1,0.475,0.199,0.7c0,0,0,0,0,0.024
					c0,0.15,0.025,0.325,0.025,0.5c0,0.125,0.075,0.226,0.05,0.325c-0.024,0.125,0,0.25,0,0.35c0,0.075,0.05,0.125,0.05,0.2
					c0,0.05-0.024,0.1-0.024,0.175s0.024,0.175,0.024,0.25c-0.024,0.101-0.024,0.2-0.024,0.3c0,0.101,0,0.2,0,0.3
					c0,0.101,0,0.2,0,0.275c0,0.125,0,0.225,0,0.325c0,0.074,0,0.175,0,0.274l0.1-0.05l-0.1,0.075c0,0.175,0,0.35,0.024,0.5
					C107.771,66.678,107.697,66.827,107.722,66.978z M99.023,72.826c0,0.024,0,0.024,0,0.024c-0.049,0.075-0.125,0.075-0.174,0.075
					h-0.025c-0.075,0-0.15-0.05-0.176-0.125c0-0.05-0.024-0.1,0-0.149c-0.024,0.024-0.049,0.05-0.074,0.05v0.024
					c-0.05,0.025-0.075,0.075-0.15,0.101c-0.05,0.024-0.1,0-0.149,0c-0.025,0-0.025,0.024-0.05,0.05v0.05c0,0.025,0,0.075,0,0.101
					c0.05,0.024,0.125,0.05,0.149,0.1c0.025-0.025,0.05-0.05,0.075-0.075c0.05-0.024,0.1-0.05,0.175-0.05s0.149,0.05,0.2,0.15
					c0.025,0.05,0.025,0.05,0.05,0.05c0.024,0.024,0.024,0.024,0.05,0.05v-0.075C98.949,73.076,98.975,72.951,99.023,72.826z
					 M98.274,69.002c0,0.05,0.024,0.125,0.024,0.175l0.051-0.075l0.149,0.275c0,0.05,0.025,0.05,0.075,0.075
					c0.025-0.025,0.025-0.025,0.025-0.025l-0.025-0.2l-0.075-0.024c-0.1-0.05-0.175-0.125-0.225-0.226
					C98.274,69.002,98.274,69.002,98.274,69.002z M98.299,66.103l0.075-0.075l0.101,0.2c0,0,0,0,0.024,0
					c0-0.024,0-0.024,0.025-0.024v-0.025c0-0.05,0.024-0.125,0.05-0.15c0-0.024,0-0.05,0-0.074c-0.075,0.05-0.175,0.074-0.275,0.024
					c0,0.025,0,0.025,0,0.05C98.299,66.053,98.299,66.078,98.299,66.103z M98.674,64.578c0,0.025,0,0.025,0,0.025
					c0.15,0.05,0.2,0.1,0.225,0.225c0-0.05,0.025-0.075,0.051-0.125h-0.025l-0.05-0.075c-0.024-0.05-0.05-0.1-0.05-0.149
					c0-0.025-0.025-0.075-0.051-0.101C98.773,64.453,98.725,64.528,98.674,64.578z M98.874,68.077c0.024,0,0.05,0.025,0.075,0.05
					h0.025l0.074-0.024c-0.025-0.051-0.025-0.125,0-0.176C98.999,67.952,98.949,68.002,98.874,68.077z M99.049,69.102l-0.1,0.025
					c0,0.025,0,0.025,0,0.025l0.15,0.024l-0.025-0.05L99.049,69.102z M99.074,71.002c0,0,0,0,0-0.025h-0.051
					c-0.024,0-0.049,0-0.049,0.025c-0.025,0-0.025,0-0.025,0s0,0,0,0.024c0.025,0,0.05,0.025,0.074,0.05l0.025-0.024L99.074,71.002z
					 M99.273,69.877c-0.024-0.025-0.024-0.025-0.049-0.025h-0.025c-0.025,0-0.051,0-0.075,0h-0.05c0,0-0.025,0-0.051,0.025v0.024
					c0,0.075,0.025,0.125,0.025,0.176c0.025,0,0.051,0,0.075,0s0.075,0,0.101,0.024c0.024-0.075,0.024-0.149,0.049-0.2
					C99.273,69.877,99.273,69.877,99.273,69.877z M99.324,66.452c-0.025-0.024-0.051-0.05-0.051-0.1
					c-0.024-0.025-0.024-0.025-0.024-0.025s0,0,0,0.025c-0.024,0.025-0.024,0.025-0.024,0.05
					C99.273,66.402,99.299,66.428,99.324,66.452z M99.35,66.503c0.074,0.074,0.074,0.149,0.1,0.199v0.025c0,0,0,0,0.025,0
					c0.049,0,0.1,0.025,0.125,0.05c0.024,0.05,0.024,0.101,0.024,0.15c-0.024,0-0.024,0.024-0.024,0.024s0,0,0,0.025
					c0.1,0,0.174,0,0.274,0c0-0.025,0-0.15-0.025-0.175c-0.024-0.05-0.05-0.075-0.075-0.101c-0.05,0.025-0.125,0.075-0.199,0.025
					c-0.075-0.025-0.15-0.1-0.15-0.2C99.398,66.527,99.374,66.503,99.35,66.503z M99.974,68.702c-0.024-0.05-0.024-0.075-0.05-0.101
					c-0.025,0-0.025,0-0.05,0c0,0-0.025,0-0.025-0.024l-0.05,0.1h-0.125c-0.05-0.024-0.125-0.05-0.15-0.075
					c-0.024,0.025-0.049,0.025-0.049,0.051c-0.025,0.024-0.025,0.05-0.051,0.074c0.025,0.075,0.025,0.176,0.025,0.25
					c0.05,0.025,0.1,0.075,0.1,0.101c0.025,0,0.025,0,0.025,0.024c0-0.024,0-0.024,0-0.024c0-0.025,0-0.025,0-0.025v-0.2
					l0.225,0.025c0,0,0,0,0-0.025C99.824,68.752,99.924,68.702,99.974,68.702z M99.549,65.703v0.024
					c0.025,0.025,0.025,0.05,0.051,0.075h-0.025c0.025,0,0.125-0.025,0.125-0.025c0-0.05-0.025-0.1-0.075-0.175
					c0,0-0.05-0.024-0.075-0.05C99.499,65.578,99.499,65.603,99.549,65.703z M99.699,67.827c0,0,0,0-0.025,0s-0.074,0-0.1,0
					c0,0.05,0,0.1,0.025,0.1c0,0.025,0.024,0.051,0.024,0.075l0.024-0.024c0-0.025,0.025-0.025,0.025-0.025
					C99.699,67.902,99.699,67.853,99.699,67.827z M100.023,63.203l0.125-0.075l0.051,0.025c0.024,0,0.024,0,0.024,0
					c0.024,0,0.024,0,0.05,0v0.025c0-0.051,0-0.075,0-0.125h-0.025c-0.049,0.024-0.124,0.024-0.174,0
					c-0.075-0.05-0.075-0.15-0.051-0.2c0.025-0.05,0.051-0.1,0.075-0.15h-0.024c-0.051-0.074-0.075-0.1-0.125-0.1l-0.226,0.175
					c0.025,0.025,0.05,0.025,0.101,0.05c0.05,0.025,0.074,0.051,0.125,0.075l0.024,0.025v0.225L100.023,63.203z M100.023,64.354
					c-0.024,0-0.05-0.025-0.074-0.025c-0.025,0-0.051,0-0.075,0c0.024,0.025,0.05,0.05,0.075,0.1c0-0.024,0-0.024,0.024-0.024
					C99.999,64.378,100.023,64.354,100.023,64.354z M99.999,69.502v-0.025V69.502h-0.101c0.025,0.024,0.025,0.05,0.051,0.1
					C99.974,69.552,99.999,69.526,99.999,69.502z M100.199,70.701c0-0.024-0.025-0.05-0.025-0.074
					c-0.025-0.025-0.025-0.051-0.05-0.051c0-0.024-0.025-0.024-0.025-0.024c-0.024,0.024-0.024,0.075-0.024,0.1
					c0,0.05,0,0.101,0.024,0.101c0.025,0.024,0.05,0.05,0.075,0.05C100.174,70.776,100.199,70.727,100.199,70.701z M100.199,65.503
					c-0.025,0-0.051,0.024-0.075,0.024c0,0.025,0,0.025,0,0.025l0.05,0.05c0.025-0.024,0.025-0.05,0.025-0.075V65.503z
					 M100.148,62.304v0.024c0.075,0,0.15,0.075,0.176,0.15c0,0.05,0,0.075-0.025,0.125c0.074,0.025,0.1,0.075,0.125,0.1
					c0-0.024,0.025-0.074,0.05-0.1c-0.101-0.05-0.101-0.125-0.101-0.175c-0.024-0.075-0.049-0.125-0.1-0.175c0,0,0,0-0.025-0.025
					c0,0.025-0.049,0.05-0.074,0.075C100.148,62.304,100.148,62.304,100.148,62.304z M100.299,70.502
					c0.025,0.024,0.05,0.024,0.05,0.05c0.075,0.024,0.101,0.024,0.149,0.024c0-0.024,0-0.05,0-0.074v-0.025
					c0-0.125,0.051-0.2,0.176-0.25v-0.025v-0.024l-0.025-0.025c-0.025-0.1-0.05-0.149-0.125-0.175c0,0-0.025-0.024-0.05-0.024
					c-0.024,0.024-0.05,0.05-0.075,0.05c-0.074,0.075-0.15,0.125-0.225,0.175c-0.025,0-0.025,0.024-0.025,0.024v0.025
					c0.025,0.075,0.051,0.15,0.1,0.225C100.273,70.451,100.273,70.477,100.299,70.502z M101.199,60.404l-0.076-0.101
					c-0.049-0.074-0.074-0.175-0.049-0.274h-0.025v-0.025c-0.025-0.024-0.051-0.05-0.051-0.1c-0.024-0.025-0.024-0.025-0.049-0.05
					l-0.025-0.025c-0.025,0-0.051,0-0.075-0.024l-0.05,0.149l-0.25-0.125c-0.075-0.024-0.125-0.075-0.2-0.1
					c-0.075-0.05-0.125-0.101-0.125-0.175c-0.024-0.051-0.024-0.101,0-0.15c-0.024,0-0.024-0.025-0.05-0.025v0.65
					c0.074-0.05,0.175-0.075,0.25-0.075c0.125,0,0.225,0.05,0.3,0.15c0.05,0.024,0.075,0.05,0.149,0.1
					c0.051,0.025,0.101,0.075,0.176,0.125c0.025,0.05,0.074,0.1,0.1,0.1L101.199,60.404z M100.474,67.527l-0.024-0.125
					c0,0,0,0,0-0.025c-0.025,0-0.051,0-0.076,0l-0.024,0.125l-0.075,0.025c0.051,0.05,0.1,0.05,0.15,0.025
					C100.424,67.527,100.449,67.527,100.474,67.527z M100.724,73.201c0-0.101,0-0.226,0-0.325l-0.101,0.025l-0.074-0.051l0.05-0.074
					l-0.05,0.05l-0.051-0.05l-0.049-0.101v-0.024c0.024-0.025,0.024-0.075,0.024-0.075v-0.05l0.024-0.05v-0.025
					c-0.049,0-0.1,0.025-0.149,0c0.05,0.1,0.05,0.125,0,0.225c-0.075,0.125-0.075,0.2,0,0.3c0.024,0.025,0.024,0.075,0.024,0.101
					c0.025,0,0.051,0,0.076,0c0.1,0,0.174,0.05,0.225,0.1C100.699,73.176,100.699,73.201,100.724,73.201z M100.648,66.003v0.1h0.051
					l0.024-0.024v-0.025c0,0,0-0.025-0.024-0.05c-0.076-0.05-0.15-0.101-0.226-0.175l-0.024,0.125h-0.025c0.025,0,0.025,0,0.025,0
					l0.049,0.024h0.051L100.648,66.003z M100.623,68.052v-0.024c0,0,0-0.025,0-0.05l-0.174,0.1c0.024,0,0.024,0,0.024,0.025h0.024
					C100.549,68.052,100.623,68.052,100.623,68.052z M100.474,69.577l-0.024,0.024c0,0.025,0,0.025,0.074,0.025l0.025,0.024
					C100.523,69.602,100.523,69.577,100.474,69.577z M100.724,73.525c-0.024,0.025-0.075,0.075-0.101,0.101
					c-0.024,0.024-0.049,0.05-0.049,0.05s0.024,0,0.049,0.025c0.025,0.024,0.051,0.024,0.101,0V73.525z M103.973,64.328
					c0.025-0.075,0.025-0.125,0.025-0.175c0-0.025,0.074-0.075,0-0.125c0,0,0.025-0.075,0.025-0.125
					c-0.025-0.025-0.025-0.025-0.051-0.05c0-0.075,0-0.175-0.025-0.25c0-0.075,0.076-0.125,0.025-0.2
					c-0.025-0.075-0.025-0.175,0.025-0.225c-0.051-0.125-0.15-0.226-0.125-0.351c-0.025-0.024-0.051-0.05-0.075-0.074
					c-0.075-0.176-0.149-0.325-0.3-0.45c-0.025,0-0.025,0-0.025-0.025c-0.074-0.1-0.175-0.149-0.3-0.175
					c-0.05,0-0.125-0.024-0.175-0.05c-0.1-0.05-0.225-0.075-0.324-0.075c-0.101,0-0.201-0.05-0.326-0.024
					c-0.049-0.075-0.125-0.051-0.199-0.051c-0.075,0.025-0.15-0.05-0.225-0.05c-0.101,0-0.4,0.075-0.45,0.15s-0.101,0.1-0.15,0.175
					l0.025,0.024c-0.025,0.025-0.05,0.075-0.025,0.101c0.075,0.125,0,0.225-0.05,0.3c0.025,0.225,0.025,0.4,0.025,0.6
					c0.024,0.425,0.024,0.85,0,1.275c0,0.074,0.05,0.149-0.025,0.225c0.05,0.075-0.05,0.149,0,0.225c0.05,0.101,0.025,0.2,0.025,0.3
					c0,1.325,0,2.649,0,3.975c0,0.075,0.024,0.149-0.025,0.25c-0.025,0.05-0.025,0.149,0,0.199c0.05,0.051,0.025,0.101,0.025,0.15
					c0,0.475,0,0.95,0,1.425c0.024,0.075,0,0.175-0.075,0.25c0,0.075,0.024,0.149,0.05,0.225c0.05,0.15,0.075,0.275,0,0.425
					c-0.025,0.05,0.05,0.075,0,0.15c-0.025,0.024-0.025,0.125,0,0.175c0.05,0.075,0.025,0.15,0.025,0.225c0.024,0.351,0,0.7,0,1.05
					c0.05,0.025,0.05,0.025,0.074,0.05c0.176-0.024,0.351,0.025,0.525-0.024c0.074-0.025,0.15,0,0.225-0.05
					c0.025-0.025,0.1-0.025,0.125,0.024h0.025c0.025-0.024,0.025-0.05,0.025-0.05c0.225-0.05,0.424-0.175,0.624-0.2
					c0.025,0,0.05,0.025,0.075,0.025c0.05-0.05,0.075-0.125,0.125-0.15c0.075-0.05,0.125-0.074,0.175-0.149c0.025,0,0.075,0,0.101,0
					c0.049-0.05,0.1-0.101,0.149-0.15l-0.024-0.024c0.024-0.025,0.049-0.075,0.1-0.101c0,0,0.025,0.025,0.05,0.05
					c0-0.05,0-0.1,0-0.1c0.125-0.1,0.125-0.274,0.226-0.375c0.074-0.05,0.125-0.325,0.1-0.375c-0.051-0.05-0.025-0.125-0.025-0.175
					c0-0.1,0-0.175,0-0.274c0.1-0.075,0-0.176,0.025-0.275c0.025-0.075-0.025-0.175-0.025-0.275c-0.025-0.1,0-0.175,0-0.274
					c-0.025-0.075,0.051-0.15,0.025-0.25c0-0.225-0.075-0.45-0.025-0.675c0-0.175-0.05-0.325,0.025-0.475
					c0.025-0.05,0.025-0.125,0-0.175c-0.051-0.075-0.025-0.15-0.025-0.25c0-0.301,0-0.601,0-0.925c0-0.075-0.025-0.15,0.025-0.25
					c0.025,0-0.025-0.05-0.025-0.101c0.051-0.074,0.025-0.149,0-0.25c-0.025-0.074,0-0.175,0-0.274c0-0.101,0-0.175,0-0.275
					c0-0.1-0.025-0.199,0-0.274c0.025-0.101-0.05-0.15,0-0.25c0.051-0.075,0.025-0.175,0.025-0.275c0-0.1,0.025-0.199,0-0.274
					c-0.051-0.101-0.025-0.2-0.025-0.275c-0.025-0.1,0-0.175,0-0.274c0-0.101-0.025-0.175,0-0.275c0-0.1-0.05-0.2,0.025-0.274
					c0-0.025-0.025-0.025-0.025-0.051C104.023,64.578,104.023,64.453,103.973,64.328z M101.323,60.379l0.05,0.2
					c0.101,0.024,0.176,0.05,0.275,0.05l0.025-0.025l-0.226-0.074v-0.101c-0.024-0.024-0.024-0.074-0.024-0.1L101.323,60.379z
					 M101.648,74.7c-0.025-0.05-0.05-0.074-0.075-0.125c0-0.024,0-0.024,0-0.024c-0.024,0.05-0.05,0.125-0.075,0.175
					c-0.024,0.025-0.05,0.1-0.125,0.15c0.025,0.024,0.051,0.024,0.075,0.074c0-0.024,0-0.024,0-0.024c0.025,0,0.025,0,0.025-0.025
					c0-0.075,0.075-0.149,0.175-0.175C101.648,74.726,101.648,74.726,101.648,74.7z M101.549,74.501c0.024,0,0.024,0,0.024-0.025
					l-0.024-0.15v0.15V74.501z M101.898,60.954l0.025,0.075c0.024-0.025,0.024-0.025,0.024-0.025l-0.024-0.05H101.898z
					 M102.398,75.051c0,0-0.025-0.025-0.025-0.051h-0.025h-0.024l-0.024,0.025c0,0.025,0,0.025,0,0.05c0,0.025,0,0.025,0,0.025
					C102.323,75.075,102.373,75.075,102.398,75.051z M102.648,74.476c-0.051,0-0.075-0.025-0.1-0.025
					c-0.051-0.024-0.125,0-0.201,0.025c0.025,0.05,0.025,0.075,0.051,0.125v0.025c0.074-0.051,0.15-0.075,0.25-0.075
					C102.623,74.525,102.623,74.501,102.648,74.476z M102.923,75.075h-0.149l-0.051,0.075c0.025,0.025,0.051,0.05,0.076,0.1
					c0.024,0.025,0.049,0.075,0.074,0.125c0.025-0.074,0.05-0.125,0.05-0.175S102.923,75.101,102.923,75.075z M103.723,76.325
					c0-0.025-0.025-0.05-0.05-0.075c-0.024,0.05-0.05,0.075-0.075,0.101C103.648,76.351,103.673,76.325,103.723,76.325z
					 M103.873,60.579v-0.15V60.579z M104.148,61.604v-0.024c0-0.025,0-0.051-0.025-0.101c-0.051,0.075-0.125,0.101-0.2,0.101h-0.024
					l0.074,0.274l0.1-0.024c0-0.051,0.025-0.101,0.076-0.15C104.148,61.679,104.148,61.629,104.148,61.604z M104.197,72.976
					c0,0,0,0-0.024,0c0,0,0,0,0,0.025v-0.025H104.197z M104.822,60.104c-0.1,0.05-0.225,0.024-0.324-0.025l-0.051,0.025
					c0,0-0.024,0-0.049,0.05c-0.025,0.05-0.051,0.075-0.076,0.1c0.025,0.05,0.051,0.101,0.051,0.175c0.025,0,0.05,0,0.074,0
					c0.025,0,0.051,0,0.075,0c0,0,0.025,0,0.05-0.024c0.051,0,0.075-0.025,0.125-0.05v-0.051l0.051-0.05
					c0-0.024,0.024-0.05,0.05-0.05C104.798,60.179,104.822,60.179,104.822,60.104z M104.748,72.401
					c-0.025,0-0.025-0.025-0.051-0.025c-0.024,0.025-0.05,0.05-0.074,0.075c0.024,0.025,0.024,0.05,0.05,0.075
					c0.024,0,0.024-0.025,0.05-0.025C104.748,72.477,104.748,72.426,104.748,72.401z M104.848,67.678c0,0,0,0-0.025,0H104.848z
					 M104.897,67.678c0,0,0,0,0-0.025h-0.024v0.025l0.024-0.025v0.075C104.897,67.702,104.897,67.702,104.897,67.678z
					 M105.098,66.853c0.025,0,0.05,0,0.074-0.05c0-0.025-0.024-0.075-0.049-0.101c-0.025-0.05-0.076-0.1-0.101-0.175l-0.075,0.2
					c0.025,0,0.051,0.025,0.051,0.05C105.072,66.853,105.098,66.853,105.098,66.853z M105.373,70.002c-0.025,0-0.025,0-0.051,0
					c-0.074,0.024-0.1,0.075-0.175,0.149c0,0.025-0.024,0.05-0.05,0.075c0,0,0,0.075,0.025,0.1h0.024c0.024,0,0.05,0,0.075,0
					c0.025-0.024,0.025-0.024,0.05-0.05c0.05-0.024,0.075-0.05,0.125-0.075L105.373,70.002z M105.373,75.351
					c0-0.025-0.025-0.025-0.051-0.05l-0.025-0.025c-0.024,0.025-0.024,0.025-0.024,0.025c-0.024,0.024-0.024,0.024-0.024,0.024
					s0.024,0,0.024,0.025l0.05,0.024C105.348,75.351,105.373,75.351,105.373,75.351z M105.672,72.401c0-0.075,0-0.125,0-0.175
					v-0.051c-0.024,0-0.024,0-0.024,0h-0.024c-0.025,0-0.051,0-0.051,0.051c0,0.05,0.025,0.1,0.051,0.125
					C105.647,72.376,105.647,72.376,105.672,72.401z M106.397,69.252c-0.075-0.025-0.175-0.075-0.226-0.2l-0.074-0.1l0.05-0.05
					h-0.025l0.025-0.101c0-0.075,0.024-0.125,0.05-0.149c-0.025,0-0.025,0-0.025-0.025c0,0.05-0.024,0.1-0.074,0.125
					c0.024,0.075,0,0.175-0.051,0.225c0.025,0.025,0.075,0.051,0.075,0.101c0.025,0.1,0.075,0.149,0.15,0.25
					c0.024,0,0.05,0.024,0.05,0.05c0,0,0,0,0.025,0.025C106.348,69.352,106.372,69.302,106.397,69.252z M106.172,68.228
					c0,0.024,0.025,0.024,0.025,0.05l0.05-0.025c0-0.024-0.024-0.05-0.024-0.05C106.197,68.202,106.197,68.228,106.172,68.228z
					 M106.397,62.604c0-0.025-0.025-0.025-0.025-0.05l-0.05,0.024l0.025,0.051L106.397,62.604z M106.922,71.002
					c0.1-0.15,0.1-0.275,0.025-0.426c0,0,0-0.024-0.025-0.024c0-0.025-0.025-0.025-0.05-0.05c0,0.024,0,0.024,0,0.05l-0.101,0.325
					l-0.074-0.101c-0.051,0.101-0.125,0.175-0.175,0.25c0,0.025,0.024,0.05,0.05,0.075c0,0,0.025,0.024,0.025,0.05l0.074-0.025
					l0.075,0.125c0.024,0.025,0.075,0.101,0.05,0.176c0,0.024,0,0.05,0,0.074c0,0.101-0.025,0.226-0.125,0.325
					c-0.025,0.025-0.025,0.025-0.025,0.05c0.025,0,0.051,0.025,0.076,0.025c0.024-0.175,0.074-0.35,0.199-0.5
					c0-0.025,0.025-0.075,0.025-0.075c0-0.024,0-0.024,0-0.024C106.872,71.227,106.896,71.076,106.922,71.002z"/>
			</g>
		</g>
	</g>
</g>
</svg>
