<svg id="Layer_2" data-name="Layer 2" xmlns="http://www.w3.org/2000/svg" viewBox="0 0 12.39 16.28">
  <defs>
    <style>
      .cls-1 {
        fill: #1c2055;
        fill-rule: evenodd;
      }
    </style>
  </defs>
  <title>locatie</title>
  <path class="cls-1" d="M6.64,0.64c0.29,0,.59.08,0.87,0.15A5.53,5.53,0,0,1,11.73,5a5.36,5.36,0,0,1-1,4.64L6.63,15.37a0.49,0.49,0,0,1-.88,0c-1.41-2-2.82-3.92-4.22-5.88A5.59,5.59,0,0,1,4.92.78c0.27-.06.55-0.1,0.83-0.14H6.64ZM8.09,6.26a1.9,1.9,0,1,0-1.9,1.87A1.9,1.9,0,0,0,8.09,6.26Z"/>
</svg>
