<svg id="Layer_2" data-name="Layer 2" xmlns="http://www.w3.org/2000/svg" viewBox="0 0 479.03 111.91">
  <defs>
    <style>
      .cls-1, .cls-2 {
        fill: none;
        stroke: #1d1f55;
        stroke-miterlimit: 10;
      }

      .cls-1 {
        stroke-width: 2.83px;
      }

      .cls-2 {
        stroke-width: 3.1px;
      }
    </style>
  </defs>
  <title>btn</title>
  <path class="cls-1" d="M19.47,11.47c40.2-1.73,80.72-.11,121-0.11h130.1q63.56,0,127.13.06c16.73,0,33.46.32,50.19,0,7.38-.15,14.73-0.75,22.1-1,4.84-.17,11-0.1,14.65,3.59A9.3,9.3,0,0,1,487,18.33c1.76,7.14.52,14.52,0,21.77-2.76,22.09-3.07,44.2-3.09,66.43,0,6.37-4.1,5.72-9.07,6.26-3.44.37-6.9,0.58-10.35,0.73-6.68.29-13.37,0.3-20.05,0.59q-16.77.74-33.55,1.33l-2.86.1-1.3,0q-33.3.21-66.59,0.34-55.36.23-110.71,0.12c-58.84-.18-117.66,1.89-176.49,2.36-8.15.06-16.09,0.4-24.19,1s-11.85-3.22-12.56-11C13.53,78.88,9.9,47.47,12.72,18a10.61,10.61,0,0,1,1-4.05C14.89,11.64,17.21,11.56,19.47,11.47Z" transform="translate(-10.28 -8.92)"/>
  <path class="cls-2" d="M29.44,19.8c-3.11.66-5.46,1.77-6.34,3.58-1.41,2.9-1.19,6.27-1,9.47C23.59,54.4,22.72,76,22,97.55c-0.13,3.77.11,8.26,3.4,10.28,1.79,1.1,4,1.14,6.15,1.14,27.58,0,55.17.17,82.75,0.21q89.6,0.14,179.19-.38c34.9-.17,69.81-0.33,104.71-1.1,25.76-.57,51.39-0.12,76.85-4.55a2,2,0,0,0,1.24-.53,1.85,1.85,0,0,0,.32-1.08c0.64-8.34.84-16.68,1.28-25,0.95-18.16,1-36.26.68-54.44a1.42,1.42,0,0,0-.24-0.94,1.55,1.55,0,0,0-1.2-.34c-7.68,0-15.35,0-23,0l-62.85-.18-178.87-.5h-1.76C181.24,20,151.3,20,121.73,19.89q-22.67-.08-45.34-0.26c-13.84-.12-28.23-1.6-42-0.49A39.11,39.11,0,0,0,29.44,19.8Z" transform="translate(-10.28 -8.92)"/>
</svg>
